<?xml version="1.0" encoding="UTF-8" standalone="no"?>
<!-- Created with Inkscape (http://www.inkscape.org/) -->

<svg
   xmlns:dc="http://purl.org/dc/elements/1.1/"
   xmlns:cc="http://creativecommons.org/ns#"
   xmlns:rdf="http://www.w3.org/1999/02/22-rdf-syntax-ns#"
   xmlns:svg="http://www.w3.org/2000/svg"
   xmlns="http://www.w3.org/2000/svg"
   xmlns:sodipodi="http://sodipodi.sourceforge.net/DTD/sodipodi-0.dtd"
   xmlns:inkscape="http://www.inkscape.org/namespaces/inkscape"
   width="1431.5886"
   height="280.59842"
   viewBox="0 0 404.02613 79.191108"
   version="1.1"
   id="svg8"
   inkscape:version="0.48.4 r9939"
   sodipodi:docname="logo.svg">
  <defs
     id="defs2">
    <linearGradient
       id="linearGradient11775">
      <stop
         style="stop-color:#000;stop-opacity:1;"
         offset="0"
         id="stop11776" />
      <stop
         style="stop-color:#fff;stop-opacity:1;"
         offset="1"
         id="stop11777" />
    </linearGradient>
    <marker
       style="overflow:visible"
       refY="0"
       refX="0"
       orient="auto"
       inkscape:stockid="Club"
       id="Club">
      <path
         transform="scale(0.6,0.6)"
         style="fill-rule:evenodd;stroke:#000000;stroke-width:0.74587908pt;marker-start:none"
         id="path1015"
         d="m -1.5971367,-7.0977635 c -1.8892507,0 -3.426382,1.5371314 -3.426382,3.4263822 0,0.6566798 0.2383531,1.2269257 0.5594092,1.7481542 -0.038751,0.032111 -0.079672,0.058463 -0.1165436,0.093235 -0.6224234,-0.8549928 -1.5893983,-1.4451409 -2.7271199,-1.4451409 -1.8892515,-1e-7 -3.426382,1.5371314 -3.426382,3.42638214 0,1.88925076 1.5371305,3.42638216 3.426382,3.42638216 0.9934462,0 1.868619,-0.4420611 2.4940326,-1.1188187 -0.124687,0.3548915 -0.2097783,0.7214874 -0.2097783,1.1188187 0,1.8892506 1.5371313,3.4263822 3.426382,3.4263822 1.88925064,0 3.4263821,-1.5371316 3.4263821,-3.4263822 0,-0.7933959 -0.3155586,-1.4938285 -0.7691878,-2.0744763 C 2.4152718,1.7663868 3.7718375,2.2973711 4.7661444,3.8340272 4.0279463,3.0958289 3.5540908,1.7534117 3.5540908,-0.05852936 l -0.6293354,-0.04661745 0.5827179,-0.0233087 c 0,-1.81194109 0.4505466,-3.15435829 1.188745,-3.89255659 -0.9590906,1.4822308 -2.2571634,2.0263625 -3.5662345,2.3075635 0.4041964,-0.5619092 0.6992616,-1.213407 0.6992616,-1.9579327 0,-1.8892506 -1.53713146,-3.4263822 -3.4263821,-3.4263822 z"
         inkscape:connector-curvature="0" />
    </marker>
    <marker
       style="overflow:visible"
       refY="0"
       refX="0"
       orient="auto"
       inkscape:stockid="SemiCircleIn"
       id="SemiCircleIn">
      <path
         transform="scale(0.6,0.6)"
         style="fill-rule:evenodd;stroke:#000000;stroke-width:1pt;marker-start:none;marker-end:none"
         sodipodi:nodetypes="cccc"
         id="path941"
         d="m -0.37450702,-0.04569258 c 0,2.75999998 2.24000002,4.99999998 5.00000002,4.99999998 v -10 c -2.76,0 -5.00000002,2.24 -5.00000002,5.00000002 z"
         inkscape:connector-curvature="0" />
    </marker>
    <marker
       style="overflow:visible"
       refY="0"
       refX="0"
       orient="auto"
       inkscape:stockid="Dot_s"
       id="Dot_s">
      <path
         transform="matrix(0.2,0,0,0.2,1.4250986,0.2)"
         style="fill-rule:evenodd;stroke:#000000;stroke-width:1pt;marker-start:none;marker-end:none"
         id="path933"
         d="m -2.5,-1 c 0,2.76 -2.24,5 -5,5 -2.76,0 -5,-2.24 -5,-5 0,-2.76 2.24,-5 5,-5 2.76,0 5,2.24 5,5 z"
         inkscape:connector-curvature="0" />
    </marker>
  </defs>
  <sodipodi:namedview
     id="base"
     pagecolor="#ffffff"
     bordercolor="#666666"
     borderopacity="1.0"
     inkscape:pageopacity="0.0"
     inkscape:pageshadow="2"
     inkscape:zoom="0.7"
     inkscape:cx="761.94064"
     inkscape:cy="46.917728"
     inkscape:document-units="mm"
     inkscape:current-layer="layer1"
     showgrid="false"
     inkscape:window-width="1853"
     inkscape:window-height="1056"
     inkscape:window-x="67"
     inkscape:window-y="24"
     inkscape:window-maximized="1"
     inkscape:snap-nodes="true"
     inkscape:snap-global="false"
     inkscape:snap-object-midpoints="false"
     inkscape:snap-bbox="true"
     inkscape:snap-grids="true"
     inkscape:snap-to-guides="true"
     inkscape:snap-smooth-nodes="true"
     showguides="true"
     inkscape:guide-bbox="true"
     inkscape:snap-others="false"
     fit-margin-top="0"
     fit-margin-left="0"
     fit-margin-right="0"
     fit-margin-bottom="0"
     units="mm">
    <sodipodi:guide
       position="-109.03625,19.19294"
       orientation="1,0"
       id="guide861"
       inkscape:locked="false" />
  </sodipodi:namedview>
  <metadata
     id="metadata5">
    <rdf:RDF>
      <cc:Work
         rdf:about="">
        <dc:format>image/svg+xml</dc:format>
        <dc:type
           rdf:resource="http://purl.org/dc/dcmitype/StillImage" />
        <dc:title></dc:title>
      </cc:Work>
    </rdf:RDF>
  </metadata>
  <g
     inkscape:label="Layer 1"
     inkscape:groupmode="layer"
     id="layer1"
     transform="translate(-48.028178,-172.73247)">
    <text
       xml:space="preserve"
       style="font-size:60.31292725px;font-style:normal;font-variant:normal;font-weight:normal;font-stretch:normal;line-height:125%;letter-spacing:0px;word-spacing:0px;fill:#7fad9a;fill-opacity:1;stroke:none;font-family:Bree Serif;-inkscape-font-specification:Bree Serif"
       x="131.1118"
       y="237.2282"
       id="text3863"
       sodipodi:linespacing="125%"><tspan
         sodipodi:role="line"
         id="tspan3865"
         x="131.1118"
         y="237.2282"
         style="font-style:normal;font-variant:normal;font-weight:normal;font-stretch:normal;fill:#7fad9a;fill-opacity:1;font-family:Contrail One;-inkscape-font-specification:Contrail One">Project Eagle</tspan></text>
    <ellipse
       d="m 126.62202,234.25597 c 0,7.09751 -17.68408,12.85119 -39.498508,12.85119 -21.814426,0 -39.498512,-5.75368 -39.498512,-12.85119 0,-7.09752 17.684086,-12.85119 39.498512,-12.85119 21.814428,0 39.498508,5.75367 39.498508,12.85119 z"
       sodipodi:ry="12.85119"
       sodipodi:rx="39.498512"
       sodipodi:cy="234.25597"
       sodipodi:cx="87.123512"
       ry="12.85119"
       rx="39.498512"
       cy="234.25597"
       cx="87.123512"
       id="ellipse3877"
       style="fill:#7fad9a;fill-opacity:1;fill-rule:nonzero;stroke:none"
       transform="translate(0.40317763,-3.486031)" />
    <path
       style="fill:#ffffff;fill-opacity:1;fill-rule:evenodd;stroke:none"
       sodipodi:nodetypes="cccccccccccccccccccccccccccccccccccccccccccccccccccccccccccccccccccccccccccccccccccccccccccccccccccccccccccccccccccccccccccccccccccccccccccccccccccccccccccccccccccccccccccccccccccccccccccccccc"
       id="path3879"
       d="m 68.825817,222.24576 c 0.404176,0.12325 1.010443,0.29579 1.818796,0.27114 0.808352,-0.0247 2.627153,-0.0739 3.30078,-0.0247 0.673627,0.0493 1.212529,-0.0246 1.414614,0.17254 0.202091,0.1972 0.269451,0.83808 0.808358,1.08457 0.538901,0.24649 2.020881,0.51763 2.222972,0.76412 0.202085,0.24649 0.269451,0.34509 0,0.59158 -0.269451,0.24649 -0.875718,0.46833 -1.751436,0.61622 -0.875712,0.1479 -1.68407,0.24649 -1.68407,0.24649 0,0 -1.75143,-0.59157 -1.818796,-0.73946 -0.06736,-0.1479 0.134731,-0.2958 -0.26945,-0.36974 -0.404176,-0.0739 -1.077804,0.14789 -1.212529,0.54228 -0.134725,0.39438 0.336816,0.86271 0.26945,1.13385 -0.06737,0.27115 -0.538901,0.51764 -0.134725,0.78878 0.404176,0.27114 1.347254,0.69017 2.088247,0.88737 0.740992,0.19719 2.020887,0.22184 2.222971,0.46833 0.202091,0.24649 -1.279893,1.18317 -1.279893,1.40501 0,0.22184 0.202091,0.64088 -0.269451,0.98596 -0.471536,0.34509 -1.010437,1.08457 -3.031324,1.5529 -2.020881,0.46834 -3.435506,0.66553 -3.772317,1.01061 -0.336817,0.34509 -0.06737,0.34509 0.336811,0.44369 0.404181,0.0986 -1.077804,0.66552 -1.549339,1.2078 -0.471542,0.54228 -1.279895,1.62685 -0.943078,1.72544 0.33681,0.0986 1.347254,0 1.549339,-0.19719 0.202091,-0.19719 1.010443,-1.405 1.010443,-1.405 0,0 -0.202085,0.91202 0.134726,1.18316 0.336816,0.27114 0.740992,0.54228 1.145168,0.46833 0.404176,-0.0739 0.202085,-1.67614 0.202085,-1.67614 0,0 0.404182,0.36974 0.673633,0.59158 0.269451,0.22184 0.471536,0.41903 0.808353,0.29579 0.33681,-0.12324 0.06736,-1.3064 0.06736,-1.3064 0,0 0.538908,0.29578 0.943084,0.36973 0.404176,0.0739 0.606261,0.12325 0.875712,-0.0493 0.269457,-0.17254 0.202091,-0.39438 0.202091,-0.39438 0,0 0.202085,0.24649 0.673627,0.24649 0.471541,0 1.077803,-0.0739 0.875718,-0.27114 -0.202091,-0.19719 1.818795,-0.0247 1.68407,-0.36974 -0.134726,-0.34508 0,-0.66552 0.538902,-0.66552 0.538901,0 0.875718,-0.27114 1.953521,-0.17254 0.673627,-0.1479 -0.336816,-1.05992 0.134725,-0.93667 0.471536,0.12324 1.549345,0.22184 1.953521,-0.0493 0.404177,-0.27114 -0.538902,-0.59158 0,-0.83807 0.538902,-0.24649 0,-0.46833 0.808352,-0.66553 0.808353,-0.19719 0.875718,-0.0493 1.077804,-0.49298 0.202091,-0.44369 0.202091,-0.64088 0.538903,-0.81342 0.336817,-0.17255 0.740993,-0.29579 0.673633,-0.66553 -0.06737,-0.36975 -0.673633,-0.71483 0.134725,-0.66553 0.808353,0.0493 1.145163,0.34508 1.751433,0.46833 0.606267,0.12325 0.740997,0.1479 1.549348,0.36974 0.808351,0.22184 0.943076,0.51764 1.414618,0.59158 0.471534,0.0739 0.875709,0.0493 1.549343,0.1479 0.673625,0.0986 1.347259,0.32044 1.684076,0.41903 0.33681,0.0986 0.33681,0.1479 0.94308,0.34509 0.60626,0.19719 1.21252,0.32044 1.6167,0.64088 0.40417,0.32044 0.33682,0.34509 0.80836,0.81342 0.47154,0.46833 0.33681,0.61623 0.60626,0.81342 0.26946,0.19719 0.26946,0.36974 0.741,0.54228 0.47153,0.17255 0.87571,0.36974 0.94307,0.1972 0.0674,-0.17255 0.0674,-0.41904 0.0674,-0.56693 0,-0.1479 0.60627,0.22184 1.14517,0.59157 0.5389,0.36974 0.26945,0.41904 0.47154,0.73948 0.20209,0.32044 0,0.54228 0.0674,0.91202 0.0674,0.36973 0.2021,0.39438 0.26945,0.93666 0.0674,0.54228 0.187109,0.63335 0.187109,1.02773 0,0.39439 -0.0391,0.55391 -0.0524,0.84561 0.23386,0.22388 0.49592,0.29235 0.67362,0.27114 0.21889,-0.0212 0.51273,-0.0226 0.68863,-0.32044 0.13472,-0.32044 0.25626,-0.5594 0.38918,-1.15851 -0.13472,-0.59158 -0.20208,-1.10921 0.0674,-1.25711 0.26945,-0.14789 0.47154,-0.12324 0.67363,0.0493 0.20209,0.17255 0.20209,0.24649 0.47153,0.54228 0.26945,0.29579 0.25246,0.48962 0.39099,0.90244 -0.0674,0.61623 0.0132,0.89695 0.0806,1.36528 0.0674,0.46833 -0.007,0.48201 0.13473,0.76412 0.12153,0.26705 0.29183,0.33068 0.87572,0.29579 0.33682,-0.14789 0.40417,-0.51763 0.5389,-0.83806 0.13472,-0.32045 0.13472,-0.2958 0.20209,-0.88738 0.0674,-0.59157 0.009,-0.82775 -0.12533,-1.02494 -0.0318,-0.2198 -0.15152,-0.4382 -0.0768,-0.52795 0.40418,0.0986 0.40418,0.27114 0.80835,0.61623 0.40418,0.34509 0.74099,0.64088 0.87572,1.03526 0.13472,0.39439 0.49413,0.53884 0.7242,0.97295 0.5389,0.41903 0.65683,0.52033 1.02722,0.53065 0.39099,-0.1027 0.57629,-0.19515 0.53891,-0.51763 -0.20209,-0.34509 -0.20209,-0.51764 -0.53891,-0.86272 -0.3368,-0.34509 -0.26944,-0.49298 -0.74098,-0.86272 -0.28624,-0.32454 -0.32161,-0.43476 -0.47154,-0.54228 0.67362,-0.0247 0.66423,0.0733 1.0778,0.24649 0.68123,0.47455 0.42297,0.37457 0.67363,0.51763 0.3742,0.28621 0.69422,0.39161 1.01045,0.34509 0.33681,-0.19719 0.47154,-0.24649 0.20208,-0.46834 -0.26945,-0.22184 -0.0674,-0.0739 -0.47153,-0.39438 -0.40419,-0.32044 -0.80836,-0.44368 -0.26946,-0.41904 0.53891,0.0246 0.60626,0 0.94308,0.1972 0.33682,0.19719 0,0.22184 0.74099,0.34509 0.741,0.12324 1.21254,0.34508 1.41462,0.17254 0.20209,-0.17254 0.26945,-0.1479 -0.20208,-0.39439 -0.47154,-0.24649 -0.94309,-0.32044 -0.74099,-0.44368 0.20208,-0.12325 0.74099,-0.1479 1.14516,-0.1479 0.40418,0 0.47154,-0.0247 0.26945,-0.27114 -0.20209,-0.24649 -0.26945,-0.24649 -0.33681,-0.36974 -0.0674,-0.12324 0.26945,-0.22184 0.26945,-0.22184 0,0 0.60626,0.1479 0.13472,-0.22184 -0.47153,-0.36973 -0.74098,-0.27114 -1.01044,-0.44368 -0.26945,-0.17255 -0.5389,-0.34509 -0.13473,-0.34509 0.40419,0 0.80836,0.0247 0.741,-0.0986 -0.0674,-0.12324 -0.67363,-0.24649 -0.33681,-0.32043 0.33681,-0.0739 0.60626,0.0246 0.87571,-0.0739 0.26945,-0.0986 0,-0.27114 0,-0.39439 0,-0.12324 -0.0674,-0.22184 0.0674,-0.34509 0.13473,-0.12324 0.40418,-0.24649 0.20209,-0.36973 -0.20209,-0.12325 0.0674,-0.1479 -0.47154,-0.27114 -0.53891,-0.12325 -0.87572,-0.0986 -0.87572,-0.22184 0,-0.12325 -0.0674,-0.0986 0.26945,-0.19719 0.33682,-0.0986 0.741,-0.0247 0.47154,-0.2465 -0.26944,-0.22184 -0.20209,-0.19719 -0.33681,-0.39439 -0.13473,-0.19719 0.0674,-0.0986 -0.5389,-0.56693 -0.60627,-0.46833 -1.21254,-0.81342 -1.8188,-0.93666 -0.60627,-0.12325 -0.47154,-0.39439 -0.0674,-0.44369 0.40418,-0.0493 0.47155,-0.27114 0.0674,-0.59158 -0.40418,-0.32044 -0.87572,-0.73948 -1.01045,-0.96132 -0.13472,-0.22184 -0.26945,-0.24649 -0.94307,-0.51763 -0.67363,-0.27114 -1.21253,-0.51763 -1.81879,-0.59158 -0.60627,-0.0739 -0.67363,-0.32044 -1.07781,-0.44369 -0.40417,-0.12324 -0.5389,-0.19719 -1.41462,-0.19719 -0.87572,0 -0.87572,0.0739 -1.75142,-0.0247 -0.87572,-0.0986 -1.2799,-0.19719 -1.34726,-0.34509 -0.0674,-0.14789 -0.33682,-0.22184 -0.875729,-0.17254 -0.5389,0.0493 -0.13473,-0.0986 -0.80835,-0.19719 -0.67363,-0.0986 -0.47154,-0.22184 -1.27989,-0.1972 -0.80836,0.0247 -1.21254,0.24649 -1.41462,0 -0.20209,-0.24649 -0.26945,-0.44368 -1.14517,-0.22184 -0.87572,0.22184 -1.34726,0.81342 -1.81879,0.1972 -0.47155,-0.61623 -0.47155,-0.76412 0.0674,-0.93667 0.5389,-0.17255 0.67363,-0.32044 1.88616,-0.49299 1.21252,-0.17254 1.21252,-0.36973 2.08824,-0.49298 0.87572,-0.12324 0.94308,-0.17254 2.29033,-0.41903 1.347269,-0.24649 1.684079,-0.32044 2.492429,-0.49298 0.80836,-0.17255 1.01045,-0.34509 1.21254,-0.51764 0.20209,-0.17254 1.07781,-0.36973 0.74099,-0.61622 -0.33682,-0.24649 -1.01044,-0.0986 -1.01044,-0.22184 0,-0.12325 0.13472,-0.22185 -0.13473,-0.46834 -0.26945,-0.24649 -0.20209,-0.34509 -1.14516,-0.44368 -0.94308,-0.0986 -1.48199,-0.1479 -1.95353,-0.0739 -0.471549,0.0739 -0.606269,-0.22184 -1.077799,-0.14789 -0.47155,0.0739 -0.67364,0.29578 -1.01045,0.17254 -0.33681,-0.12325 0.26945,-0.19719 -0.53891,-0.27114 -0.80835,-0.0739 -0.87571,0.12324 -0.94307,-0.0493 -0.0674,-0.17255 0.20208,-0.34509 -0.67363,-0.17255 -0.87572,0.17255 -0.60626,0.51764 -1.27989,0.27115 -0.67363,-0.2465 -0.33682,-0.54228 -1.54935,-0.29579 -1.212537,0.24649 -0.80836,0.27114 -1.751437,0.24649 -0.943076,-0.0246 -0.943076,-0.0493 -1.279893,0.22184 -0.336809,0.27114 0.336817,0.19719 -1.14516,0.22185 -1.481992,0.0247 -0.740992,-0.32045 -1.684076,0.14789 -0.943082,0.46833 -1.145167,0.93666 -1.549345,0.41903 -0.404177,-0.51763 0,-0.64088 -0.606268,-0.78877 -0.606261,-0.14789 -3.704953,-0.0986 -3.704953,-0.0986 0,0 -0.06737,-0.56692 -0.336817,-0.66552 -0.26945,-0.0986 -0.943077,0.0986 -1.549344,-0.0986 -0.606262,-0.19719 -0.202086,-0.32044 -0.740987,-0.49298 -0.538902,-0.17254 -1.616711,-0.19719 -1.616711,-0.19719 0,0 0.740993,0.22184 0.943084,0.41903 0.202085,0.1972 0.471536,0.54228 0.471536,0.54228 0,0 -1.077803,-0.14789 -1.549345,-0.17254 -0.471536,-0.0247 -1.212528,0.0246 -1.212528,0.0246 l 0.202085,-0.56693 c 0,0 -1.279888,0 -1.279888,0.19719 0,0.19719 0.404176,0.73947 0.740992,0.81342 0.336811,0.0739 0.808353,0.0493 0.808353,0.0493 0,0 -0.134726,0.24649 0.202085,0.29579 0.336816,0.0493 0.538901,0 1.077803,0 0.538907,0 2.963964,0.27114 2.963964,0.27114 0,0 -0.06736,0.64087 0.202091,0.91201 0.269451,0.27114 1.549345,1.03527 0.943077,1.15851 -0.606267,0.12325 -1.077802,0.0246 -1.414618,-0.0986 -0.336812,-0.12325 -0.943079,-0.49299 -2.222972,-0.59158 -1.279895,-0.0986 -2.290338,-0.1479 -2.290338,-0.1479 0,0 -0.269445,-0.0493 -0.269445,-0.24649 0,-0.19719 0.471536,-0.39439 -0.202091,-0.64087 -0.673627,-0.2465 -1.212528,-0.46834 -1.953521,-0.34509 -0.740993,0.12324 -0.875718,0.27114 -0.875718,0.27114 0,0 0.538902,-0.12325 1.41462,-0.0493 0.875718,0.0739 0.538901,0.69017 0.471542,0.81342 -0.06737,0.12324 -0.740993,0.24649 -1.14517,0.12324 -0.404176,-0.12324 -0.943077,-0.44368 -0.606267,-0.56693 0.336817,-0.12324 -0.943077,0.27115 -0.875712,0.44369 0.06736,0.17254 0.269451,0.29579 0.269451,0.29579 0,0 -0.875718,0 -1.414619,0.0247 -0.538908,0.0247 -0.943084,0.12324 -0.943084,-0.0247 0,-0.1479 0.269457,-0.81342 -0.33681,-0.39439 -0.606262,0.41904 -0.875712,0.51764 -0.269451,0.73948 z"
       inkscape:connector-curvature="0" />
    <path
       inkscape:connector-curvature="0"
       d="m 77.470017,208.6697 c 0.3017,-0.25187 0.754256,-0.6045 1.35766,-0.55413 0.603406,0.0503 1.961069,0.15112 2.463904,0.0503 0.502838,-0.10082 0.905106,0.0503 1.055955,-0.35263 0.150843,-0.40304 0.201125,-1.71284 0.603406,-2.21662 0.40227,-0.50377 1.508509,-1.05793 1.659363,-1.56171 0.150829,-0.50379 0.201125,-0.7053 0,-1.20906 -0.201126,-0.50378 -0.653688,-0.9572 -1.307378,-1.25948 -0.653682,-0.30227 -1.257092,-0.50374 -1.257092,-0.50374 0,0 -1.307376,1.20905 -1.357662,1.51132 -0.05029,0.30229 0.100585,0.60454 -0.201124,0.75566 -0.301705,0.15111 -0.804539,-0.30227 -0.905105,-1.10829 -0.100585,-0.80606 0.25142,-1.76323 0.201125,-2.31739 -0.05029,-0.55416 -0.402269,-1.05795 -0.100585,-1.6121 0.3017,-0.55415 1.005672,-1.41056 1.558794,-1.81359 0.553123,-0.40303 1.508514,-0.45343 1.659361,-0.95718 0.150859,-0.50379 -0.95539,-2.41817 -0.95539,-2.87157 0,-0.45338 0.150874,-1.3098 -0.201143,-2.01509 -0.351984,-0.70531 -0.754254,-2.21664 -2.262768,-3.17384 -1.508508,-0.95717 -2.56447,-1.36015 -2.815888,-2.06546 -0.25142,-0.7053 -0.05029,-0.7053 0.251418,-0.90682 0.301704,-0.20148 -0.80454,-1.36019 -1.156523,-2.46849 -0.351986,-1.10831 -0.95539,-3.32494 -0.70397,-3.52645 0.251417,-0.20149 1.005673,0 1.156522,0.40302 0.150875,0.40302 0.754255,2.87153 0.754255,2.87153 0,0 -0.150828,-1.86399 0.100585,-2.41814 0.251421,-0.55415 0.553123,-1.10829 0.854823,-0.95718 0.301701,0.15112 0.150828,3.42572 0.150828,3.42572 0,0 0.301707,-0.7557 0.502842,-1.2091 0.201126,-0.45338 0.351983,-0.85641 0.603405,-0.60454 0.251415,0.25192 0.05029,2.67003 0.05029,2.67003 0,0 0.402275,-0.60452 0.703974,-0.75563 0.301703,-0.15112 0.452551,-0.25192 0.653688,0.10082 0.201145,0.35265 0.150844,0.80607 0.150844,0.80607 0,0 0.150828,-0.5038 0.502836,-0.5038 0.351986,0 0.804537,0.15111 0.653688,0.55417 -0.150859,0.403 1.35766,0.0503 1.257093,0.75565 -0.100585,0.70532 0,1.3602 0.402271,1.3602 0.402267,0 0.653689,0.55416 1.458227,0.35264 0.502834,0.30227 -0.251419,2.16627 0.100585,1.91436 0.351987,-0.25188 1.156528,-0.45339 1.458231,0.10082 0.301701,0.55414 -0.402272,1.20905 0,1.71285 0.402268,0.50375 0,0.95718 0.6034,1.3602 0.603406,0.403 0.653693,0.10082 0.804541,1.00754 0.150874,0.90681 0.150874,1.30984 0.40227,1.66247 0.251421,0.35265 0.553124,0.60455 0.502842,1.36021 -0.05029,0.75569 -0.502842,1.46097 0.100585,1.36021 0.603403,-0.10082 0.854819,-0.7053 1.307376,-0.95717 0.452556,-0.2519 0.553124,-0.30227 1.156528,-0.75567 0.603403,-0.45343 0.70397,-1.05794 1.055958,-1.2091 0.351982,-0.15111 0.653683,-0.10082 1.156524,-0.30224 0.502832,-0.20149 1.005674,-0.65493 1.257098,-0.85643 0.251416,-0.2015 0.251416,-0.30228 0.70397,-0.70531 0.452551,-0.403 0.905101,-0.6549 1.206806,-1.30981 0.301696,-0.6549 0.251423,-0.7053 0.603407,-1.66248 0.351986,-0.95717 0.251416,-1.25944 0.452551,-1.66245 0.201146,-0.40303 0.201146,-0.75566 0.553128,-1.10832 0.351979,-0.35264 0.653683,-0.75566 0.703965,-0.40302 0.05031,0.35265 0.05031,0.85641 0.05031,1.15869 0,0.30226 0.452555,-0.45341 0.854829,-1.20908 0.40227,-0.75565 0.20112,-0.85641 0.35199,-1.51132 0.15087,-0.65493 0,-1.10833 0.0503,-1.86398 0.0503,-0.75567 0.15084,-0.80605 0.20112,-1.91434 0.0503,-1.10833 0.13966,-1.29444 0.13966,-2.10049 0,-0.80605 -0.0292,-1.13208 -0.0391,-1.72823 0.17456,-0.4576 0.37018,-0.59752 0.50282,-0.55417 0.16339,0.0435 0.38273,0.046 0.51403,0.6549 0.10059,0.65492 0.19128,1.14331 0.29051,2.36778 -0.10058,1.20906 -0.15083,2.26699 0.0503,2.56926 0.20112,0.30227 0.35198,0.25189 0.50283,-0.10082 0.15088,-0.35263 0.15088,-0.50375 0.35199,-1.10829 0.20112,-0.60455 0.18844,-1.00068 0.29185,-1.84441 -0.0503,-1.25944 0.01,-1.83316 0.0602,-2.79035 0.0503,-0.95719 -0.005,-0.98514 0.10059,-1.56171 0.0907,-0.54578 0.21784,-0.67585 0.65369,-0.60454 0.25142,0.30227 0.3017,1.05793 0.40227,1.71283 0.10058,0.65494 0.10058,0.60455 0.15087,1.81362 0.0503,1.20907 0.007,1.69176 -0.0936,2.09478 -0.0237,0.4492 -0.11311,0.89559 -0.0573,1.07901 0.3017,-0.2015 0.3017,-0.55414 0.6034,-1.25944 0.30171,-0.70528 0.55312,-1.30982 0.65369,-2.11586 0.10059,-0.80604 0.36885,-1.10128 0.54059,-1.98849 0.40227,-0.85643 0.4903,-1.06348 0.76678,-1.08456 0.29185,0.20987 0.43017,0.39884 0.40227,1.05794 -0.15084,0.70528 -0.15084,1.05794 -0.40227,1.76321 -0.25141,0.70531 -0.20113,1.00757 -0.55312,1.76324 -0.21366,0.66328 -0.24007,0.88855 -0.35198,1.10832 0.50283,0.0503 0.49582,-0.14975 0.80453,-0.5038 0.50852,-0.96987 0.31573,-0.76554 0.50284,-1.05792 0.27933,-0.58497 0.51821,-0.80037 0.75427,-0.7053 0.25141,0.40303 0.35198,0.5038 0.15082,0.95718 -0.20112,0.45341 -0.0503,0.15112 -0.35198,0.80604 -0.3017,0.65492 -0.6034,0.90681 -0.20114,0.85643 0.40228,-0.0503 0.45255,0 0.70397,-0.40304 0.25142,-0.403 0,-0.45339 0.55312,-0.70529 0.55313,-0.25187 0.90512,-0.70528 1.05596,-0.35262 0.15088,0.35262 0.20113,0.30225 -0.15082,0.80604 -0.35199,0.50378 -0.70398,0.65491 -0.55313,0.9068 0.15084,0.25189 0.55313,0.30225 0.85483,0.30225 0.3017,0 0.35198,0.0503 0.20111,0.55418 -0.15083,0.50375 -0.20111,0.50375 -0.25141,0.75566 -0.0503,0.25187 0.20112,0.45339 0.20112,0.45339 0,0 0.45255,-0.30226 0.10056,0.45341 -0.35198,0.75567 -0.55311,0.55415 -0.75425,0.9068 -0.20113,0.35265 -0.40226,0.70529 -0.10056,0.70529 0.30171,0 0.60341,-0.0503 0.55313,0.2015 -0.0503,0.25188 -0.50284,0.5038 -0.25142,0.65492 0.25142,0.15111 0.45255,-0.0503 0.65368,0.15111 0.20115,0.2015 0,0.55415 0,0.80604 0,0.2519 -0.0503,0.45342 0.0503,0.70529 0.10056,0.2519 0.30172,0.50377 0.15088,0.75567 -0.15088,0.25188 0.0503,0.30228 -0.35199,0.55415 -0.40228,0.2519 -0.65369,0.2015 -0.65369,0.4534 0,0.25191 -0.0503,0.2015 0.20113,0.40303 0.25143,0.2015 0.55313,0.0503 0.35199,0.50378 -0.20113,0.45339 -0.15084,0.40303 -0.25143,0.80606 -0.10056,0.403 0.0503,0.20147 -0.40226,1.15867 -0.45256,0.95718 -0.90511,1.66247 -1.35767,1.91436 -0.45255,0.2519 -0.35198,0.80606 -0.0503,0.90683 0.30172,0.10069 0.352,0.55414 0.0503,1.20904 -0.3017,0.65491 -0.65368,1.51135 -0.75425,1.96476 -0.10056,0.45339 -0.20113,0.50378 -0.70397,1.05793 -0.50284,0.55416 -0.9051,1.05791 -1.35765,1.20906 -0.45256,0.15113 -0.50284,0.65491 -0.80455,0.90679 -0.3017,0.2519 -0.40227,0.40303 -1.05596,0.40303 -0.65369,0 -0.65369,-0.15111 -1.30736,0.0503 -0.65369,0.2015 -0.9554,0.40303 -1.00568,0.70531 -0.0503,0.30226 -0.25142,0.45337 -0.65369,0.35263 -0.40227,-0.10082 -0.10058,0.2015 -0.6034,0.40303 -0.502844,0.2015 -0.351994,0.4534 -0.955392,0.40303 -0.60341,-0.0503 -0.905115,-0.5038 -1.05596,0 -0.150844,0.50377 -0.201125,0.90679 -0.854824,0.45338 -0.653691,-0.45338 -1.005677,-1.66245 -1.357655,-0.40301 -0.351997,1.25945 -0.351997,1.56172 0.05031,1.91435 0.402268,0.35263 0.502837,0.65491 1.407945,1.00758 0.905097,0.35263 0.905097,0.75566 1.55879,1.00754 0.653687,0.2519 0.703967,0.35264 1.709646,0.85642 1.00567,0.50378 1.25708,0.65492 1.86049,1.00755 0.60341,0.35266 0.75426,0.7053 0.90511,1.05793 0.15088,0.35268 0.80455,0.75567 0.55312,1.25946 -0.25142,0.50377 -0.75425,0.2015 -0.75425,0.45338 0,0.25191 0.10058,0.45342 -0.10059,0.95719 -0.20112,0.50379 -0.15087,0.7053 -0.85481,0.9068 -0.70398,0.20149 -1.10624,0.30227 -1.45823,0.15112 -0.35199,-0.15112 -0.45256,0.45338 -0.804529,0.30225 -0.352,-0.15111 -0.50285,-0.60454 -0.754264,-0.35264 -0.251417,0.2519 0.201123,0.40301 -0.402276,0.55417 -0.603401,0.15111 -0.653683,-0.25191 -0.703966,0.10082 -0.05031,0.35266 0.150828,0.70529 -0.502838,0.35266 -0.65369,-0.35266 -0.452548,-1.05794 -0.955389,-0.55418 -0.502837,0.50378 -0.251421,1.10832 -1.156527,0.60454 -0.905113,-0.50379 -0.603412,-0.55416 -1.30738,-0.50379 -0.703971,0.0503 -0.703971,0.10083 -0.955391,-0.4534 -0.251416,-0.55414 0.25142,-0.40301 -0.854819,-0.45338 -1.106247,-0.0503 -0.553121,0.6549 -1.257097,-0.30227 -0.703971,-0.95719 -0.854824,-1.91434 -1.156526,-0.85642 -0.301702,1.05793 0,1.3098 -0.452554,1.61207 -0.452551,0.30229 -2.765604,0.2015 -2.765604,0.2015 0,0 -0.05029,1.1587 -0.251421,1.36021 -0.201126,0.20146 -0.70397,-0.2015 -1.156524,0.20146 -0.452551,0.40305 -0.150844,0.65494 -0.55312,1.00759 -0.402267,0.35264 -1.206811,0.40301 -1.206811,0.40301 0,0 0.553123,-0.4534 0.703976,-0.85643 0.150828,-0.40301 0.351985,-1.10831 0.351985,-1.10831 0,0 -0.80454,0.30227 -1.156527,0.35264 -0.351985,0.0503 -0.905106,-0.0503 -0.905106,-0.0503 l 0.15083,1.15869 c 0,0 -0.955388,0 -0.955388,-0.403 0,-0.40303 0.301703,-1.51132 0.553124,-1.66247 0.251416,-0.15112 0.603403,-0.10082 0.603403,-0.10082 0,0 -0.100585,-0.50377 0.150828,-0.60453 0.25142,-0.10082 0.402268,0 0.804537,0 0.402273,0 2.212484,-0.55417 2.212484,-0.55417 0,0 -0.05029,-1.30981 0.150874,-1.86396 0.201145,-0.55417 1.156526,-2.1159 0.703973,-2.36776 -0.452558,-0.25188 -0.804538,-0.0503 -1.055959,0.2015 -0.251419,0.25188 -0.703974,1.00755 -1.659362,1.20906 -0.955392,0.2015 -1.709648,0.30227 -1.709648,0.30227 0,0 -0.201126,0.10082 -0.201126,0.50378 0,0.40304 0.351985,0.80607 -0.150875,1.30983 -0.502834,0.50377 -0.905103,0.95718 -1.458226,0.70528 -0.553123,-0.25189 -0.65369,-0.55414 -0.65369,-0.55414 0,0 0.402271,0.25187 1.055959,0.10082 0.65369,-0.15112 0.402269,-1.41058 0.351987,-1.66246 -0.05029,-0.25188 -0.553121,-0.50377 -0.854824,-0.25188 -0.301701,0.25188 -0.703972,0.90679 -0.452555,1.15869 0.251422,0.25187 -0.703969,-0.55417 -0.653685,-0.90681 0.05029,-0.35265 0.201148,-0.60454 0.201148,-0.60454 0,0 -0.653693,0 -1.05596,-0.0503 -0.402275,-0.0503 -0.703977,-0.2519 -0.703977,0.0503 0,0.30228 0.201146,1.66249 -0.251415,0.80604 -0.45255,-0.85639 -0.653684,-1.05792 -0.201124,-1.51134 z"
       id="path3881"
       sodipodi:nodetypes="cccccccccccccccccccccccccccccccccccccccccccccccccccccccccccccccccccccccccccccccccccccccccccccccccccccccccccccccccccccccccccccccccccccccccccccccccccccccccccccccccccccccccccccccccccccccccccccccc"
       style="fill:#7fad9a;fill-opacity:1;fill-rule:evenodd;stroke:none" />
  </g>
</svg>
