<?xml version="1.0" encoding="UTF-8" standalone="no"?>
<!-- Created with Inkscape (http://www.inkscape.org/) -->

<svg
   xmlns:dc="http://purl.org/dc/elements/1.1/"
   xmlns:cc="http://creativecommons.org/ns#"
   xmlns:rdf="http://www.w3.org/1999/02/22-rdf-syntax-ns#"
   xmlns:svg="http://www.w3.org/2000/svg"
   xmlns="http://www.w3.org/2000/svg"
   xmlns:sodipodi="http://sodipodi.sourceforge.net/DTD/sodipodi-0.dtd"
   xmlns:inkscape="http://www.inkscape.org/namespaces/inkscape"
   width="1431.5886"
   height="280.59842"
   viewBox="0 0 404.02613 79.191108"
   version="1.1"
   id="svg8"
   inkscape:version="0.48.4 r9939"
   sodipodi:docname="logo.svg"
   inkscape:export-filename="/home/ruben/Documents/Work/Repositories/ProjectEagle/doc/logo/logo.png"
   inkscape:export-xdpi="1000"
   inkscape:export-ydpi="1000">
  <defs
     id="defs2">
    <linearGradient
       id="linearGradient11775">
      <stop
         style="stop-color:#000;stop-opacity:1;"
         offset="0"
         id="stop11776" />
      <stop
         style="stop-color:#fff;stop-opacity:1;"
         offset="1"
         id="stop11777" />
    </linearGradient>
    <marker
       style="overflow:visible"
       refY="0"
       refX="0"
       orient="auto"
       inkscape:stockid="Club"
       id="Club">
      <path
         transform="scale(0.6,0.6)"
         style="fill-rule:evenodd;stroke:#000000;stroke-width:0.74587908pt;marker-start:none"
         id="path1015"
         d="m -1.5971367,-7.0977635 c -1.8892507,0 -3.426382,1.5371314 -3.426382,3.4263822 0,0.6566798 0.2383531,1.2269257 0.5594092,1.7481542 -0.038751,0.032111 -0.079672,0.058463 -0.1165436,0.093235 -0.6224234,-0.8549928 -1.5893983,-1.4451409 -2.7271199,-1.4451409 -1.8892515,-1e-7 -3.426382,1.5371314 -3.426382,3.42638214 0,1.88925076 1.5371305,3.42638216 3.426382,3.42638216 0.9934462,0 1.868619,-0.4420611 2.4940326,-1.1188187 -0.124687,0.3548915 -0.2097783,0.7214874 -0.2097783,1.1188187 0,1.8892506 1.5371313,3.4263822 3.426382,3.4263822 1.88925064,0 3.4263821,-1.5371316 3.4263821,-3.4263822 0,-0.7933959 -0.3155586,-1.4938285 -0.7691878,-2.0744763 C 2.4152718,1.7663868 3.7718375,2.2973711 4.7661444,3.8340272 4.0279463,3.0958289 3.5540908,1.7534117 3.5540908,-0.05852936 l -0.6293354,-0.04661745 0.5827179,-0.0233087 c 0,-1.81194109 0.4505466,-3.15435829 1.188745,-3.89255659 -0.9590906,1.4822308 -2.2571634,2.0263625 -3.5662345,2.3075635 0.4041964,-0.5619092 0.6992616,-1.213407 0.6992616,-1.9579327 0,-1.8892506 -1.53713146,-3.4263822 -3.4263821,-3.4263822 z"
         inkscape:connector-curvature="0" />
    </marker>
    <marker
       style="overflow:visible"
       refY="0"
       refX="0"
       orient="auto"
       inkscape:stockid="SemiCircleIn"
       id="SemiCircleIn">
      <path
         transform="scale(0.6,0.6)"
         style="fill-rule:evenodd;stroke:#000000;stroke-width:1pt;marker-start:none;marker-end:none"
         sodipodi:nodetypes="cccc"
         id="path941"
         d="m -0.37450702,-0.04569258 c 0,2.75999998 2.24000002,4.99999998 5.00000002,4.99999998 v -10 c -2.76,0 -5.00000002,2.24 -5.00000002,5.00000002 z"
         inkscape:connector-curvature="0" />
    </marker>
    <marker
       style="overflow:visible"
       refY="0"
       refX="0"
       orient="auto"
       inkscape:stockid="Dot_s"
       id="Dot_s">
      <path
         transform="matrix(0.2,0,0,0.2,1.4250986,0.2)"
         style="fill-rule:evenodd;stroke:#000000;stroke-width:1pt;marker-start:none;marker-end:none"
         id="path933"
         d="m -2.5,-1 c 0,2.76 -2.24,5 -5,5 -2.76,0 -5,-2.24 -5,-5 0,-2.76 2.24,-5 5,-5 2.76,0 5,2.24 5,5 z"
         inkscape:connector-curvature="0" />
    </marker>
  </defs>
  <sodipodi:namedview
     id="base"
     pagecolor="#ffffff"
     bordercolor="#666666"
     borderopacity="1.0"
     inkscape:pageopacity="0.0"
     inkscape:pageshadow="2"
     inkscape:zoom="0.47029941"
     inkscape:cx="129.22528"
     inkscape:cy="-194.37094"
     inkscape:document-units="mm"
     inkscape:current-layer="text3863"
     showgrid="false"
     inkscape:window-width="1853"
     inkscape:window-height="1056"
     inkscape:window-x="67"
     inkscape:window-y="24"
     inkscape:window-maximized="1"
     inkscape:snap-nodes="true"
     inkscape:snap-global="false"
     inkscape:snap-object-midpoints="false"
     inkscape:snap-bbox="true"
     inkscape:snap-grids="true"
     inkscape:snap-to-guides="true"
     inkscape:snap-smooth-nodes="true"
     showguides="true"
     inkscape:guide-bbox="true"
     inkscape:snap-others="false"
     fit-margin-top="0"
     fit-margin-left="0"
     fit-margin-right="0"
     fit-margin-bottom="0"
     units="mm">
    <sodipodi:guide
       position="-109.03625,19.19294"
       orientation="1,0"
       id="guide861"
       inkscape:locked="false" />
  </sodipodi:namedview>
  <metadata
     id="metadata5">
    <rdf:RDF>
      <cc:Work
         rdf:about="">
        <dc:format>image/svg+xml</dc:format>
        <dc:type
           rdf:resource="http://purl.org/dc/dcmitype/StillImage" />
        <dc:title />
      </cc:Work>
    </rdf:RDF>
  </metadata>
  <g
     inkscape:label="Layer 1"
     inkscape:groupmode="layer"
     id="layer1"
     transform="translate(-48.028178,-172.73247)">
    <g
       style="font-size:60.31292725px;font-style:normal;font-variant:normal;font-weight:normal;font-stretch:normal;line-height:125%;letter-spacing:0px;word-spacing:0px;fill:#7fad9a;fill-opacity:1;stroke:none;font-family:Bree Serif;-inkscape-font-specification:Bree Serif"
       id="text3863">
      <path
         d="m 159.61908,209.75165 c -1.68847,6.53785 -6.96977,9.81658 -15.84392,9.83619 l -1.85533,16.69797 c -0.0589,0.47119 -0.30432,0.7166 -0.73624,0.73624 l -6.18443,0.32394 c -0.43193,-0.0393 -0.6479,-0.22578 -0.64789,-0.55954 l 5.09479,-44.55735 c 0.0785,-0.41225 0.33375,-0.63803 0.76569,-0.67735 3.67138,-0.33371 7.17589,-0.50059 10.51353,-0.50064 6.63597,5e-5 9.95396,3.18061 9.95399,9.54169 -3e-5,3.4751 -0.35342,6.52804 -1.06019,9.15885 m -13.42905,-11.83877 -1.67863,14.87209 c 3.39651,2e-5 5.68377,-0.70677 6.86178,-2.12038 1.17796,-1.41355 1.76695,-4.16219 1.76698,-8.24591 -3e-5,-1.57061 -0.42214,-2.72896 -1.26634,-3.47506 -0.84424,-0.74602 -1.92406,-1.11905 -3.23946,-1.11909 -1.31544,4e-5 -2.13021,0.0295 -2.44433,0.0883"
         style="fill:#7fad9a;font-family:Contrail One;-inkscape-font-specification:Contrail One"
         id="path2997" />
      <path
         d="m 184.20956,209.13321 -3.15112,-0.32395 c -2.55232,3e-5 -4.69233,0.51049 -6.42002,1.53139 l -2.91552,25.97461 c -0.0785,0.49082 -0.32396,0.75587 -0.73624,0.79514 l -5.94884,0.23559 c -0.43193,-0.0393 -0.64789,-0.22578 -0.64789,-0.55954 l 3.88736,-34.24997 c 0.0785,-0.43189 0.32394,-0.66749 0.73624,-0.70679 l 5.74268,-0.20615 c 0.53008,0.0197 0.79513,0.2749 0.79515,0.76569 l -0.3534,3.03332 c 1.2565,-1.27612 2.47376,-2.26759 3.65176,-2.97442 1.17797,-0.72639 2.35595,-1.0896 3.53396,-1.08963 1.1976,3e-5 2.11054,0.0491 2.73882,0.14724 0.41227,0.0786 0.61842,0.35344 0.61844,0.82459 -2e-5,1.35472 -0.2258,3.36712 -0.67734,6.03719 -0.0982,0.51049 -0.38287,0.76572 -0.85404,0.76569"
         style="fill:#7fad9a;font-family:Contrail One;-inkscape-font-specification:Contrail One"
         id="path2999" />
      <path
         d="m 198.6399,237.55214 c -3.47507,0 -6.02737,-1.04055 -7.65691,-3.12166 -1.60992,-2.10074 -2.41488,-5.15369 -2.41488,-9.15885 0,-1.86513 0.20615,-4.29964 0.61845,-7.30352 0.41229,-3.00384 0.79513,-5.18312 1.14853,-6.53783 0.35339,-1.37429 0.85404,-2.70934 1.50194,-4.00515 0.64788,-1.31539 1.41357,-2.39521 2.29707,-3.23947 1.94367,-1.88474 4.5745,-2.82713 7.89251,-2.82716 4.71193,3e-5 7.76487,1.72774 9.15885,5.18314 0.74603,1.84554 1.11906,4.08371 1.11909,6.71452 -3e-5,2.61123 -0.20618,5.3206 -0.61845,8.12811 -0.39268,2.80755 -0.76571,4.88866 -1.11908,6.24333 -0.35342,1.33506 -0.85407,2.65048 -1.50194,3.94626 -0.62828,1.27616 -1.38415,2.33634 -2.26762,3.18056 -1.9437,1.86515 -4.66288,2.79772 -8.15756,2.79772 m 5.21259,-12.89895 c 0.21595,-1.04055 0.49081,-2.98422 0.82459,-5.83104 0.35338,-2.86641 0.53008,-4.98679 0.5301,-6.36113 -2e-5,-3.3376 -1.20746,-5.00641 -3.62231,-5.00644 -1.13874,3e-5 -2.08113,0.53994 -2.82717,1.61973 -0.72644,1.07985 -1.31543,2.87628 -1.76698,5.38929 -0.90314,5.10463 -1.3547,9.24721 -1.35469,12.42776 -1e-5,3.18057 1.19761,4.77085 3.59286,4.77085 1.13871,0 2.0811,-0.53991 2.82717,-1.61973 0.76567,-1.09945 1.36448,-2.89588 1.79643,-5.38929"
         style="fill:#7fad9a;font-family:Contrail One;-inkscape-font-specification:Contrail One"
         id="path3001" />
      <path
         d="m 217.72329,239.90812 4.0935,-37.37164 c 0.0785,-0.43189 0.32394,-0.66749 0.73624,-0.70679 l 5.74269,-0.20615 c 0.53008,0.0393 0.79513,0.29453 0.79514,0.76569 l -4.06405,35.9875 c -0.53011,4.67268 -1.88479,8.09865 -4.06406,10.27794 -2.17928,2.17926 -5.39911,3.2689 -9.65949,3.26891 -0.47119,-10e-6 -0.70679,-0.23561 -0.70679,-0.70679 l 0.67734,-5.74269 c 0.0393,-0.4712 0.2356,-0.7068 0.58899,-0.70679 1.80625,-1e-5 3.18057,-0.40248 4.12296,-1.20744 0.94238,-0.78533 1.52156,-2.00258 1.73753,-3.65175 m 8.09866,-41.49459 c -1.21727,4e-5 -2.1891,-0.38281 -2.91552,-1.14854 -0.72643,-0.76565 -1.08965,-1.7473 -1.08964,-2.94497 -1e-5,-1.21721 0.48101,-2.29703 1.44304,-3.23946 0.98164,-0.96198 2.08109,-1.44299 3.29836,-1.44303 1.21724,4e-5 2.19889,0.38289 2.94497,1.14853 0.76567,0.76574 1.14852,1.75721 1.14853,2.97442 -1e-5,1.19766 -0.50066,2.27748 -1.50193,3.23946 -1.0013,0.94243 -2.11057,1.41363 -3.32781,1.41359"
         style="fill:#7fad9a;font-family:Contrail One;-inkscape-font-specification:Contrail One"
         id="path3003" />
      <path
         d="m 235.92318,231.72111 c -0.45156,-1.17798 -0.76569,-2.33634 -0.94238,-3.47506 -0.15707,-1.15835 -0.23561,-2.73881 -0.2356,-4.7414 -1e-5,-2.00256 0.21596,-4.47633 0.64789,-7.42132 1.43321,-9.81653 5.88992,-14.7248 13.37015,-14.72483 2.88605,3e-5 5.09477,0.9915 6.62618,2.97441 1.53135,1.98298 2.29705,4.55491 2.29707,7.71582 -2e-5,3.16095 -0.19636,6.23353 -0.58899,9.21774 -0.0589,0.53011 -0.36324,0.80498 -0.91294,0.82459 l -14.54814,0.50065 c -0.0196,0.29451 -0.0295,0.68717 -0.0294,1.17799 -1e-5,2.21855 0.38284,3.97571 1.14854,5.27149 0.78531,1.29579 1.9633,1.94368 3.53396,1.94367 1.57063,1e-5 3.02348,-0.22577 4.35855,-0.67734 1.35466,-0.47118 2.1498,-0.70678 2.38542,-0.70679 0.23558,1e-5 0.44173,0.0785 0.61845,0.2356 0.17667,0.15707 0.26502,0.37303 0.26504,0.64789 l -0.58899,5.18314 c -0.0197,0.2945 -0.0786,0.49083 -0.1767,0.589 -0.0786,0.0785 -0.24543,0.16688 -0.50064,0.26504 -2.37563,0.68716 -4.66288,1.03074 -6.86178,1.03074 -2.19892,0 -3.907,-0.26505 -5.12424,-0.79514 -1.21726,-0.53009 -2.19891,-1.20743 -2.94497,-2.03203 -0.72643,-0.84422 -1.32524,-1.84551 -1.79643,-3.00386 m 6.42003,-16.52127 -0.26504,1.88478 7.68636,-0.38285 c 0.33374,-0.0196 0.54971,-0.0785 0.64789,-0.17669 0.29448,-0.29448 0.44173,-1.09944 0.44175,-2.41488 -2e-5,-1.33502 -0.0491,-2.2676 -0.14725,-2.79772 -0.0786,-0.5497 -0.2258,-1.10924 -0.44175,-1.67863 -0.45158,-1.25649 -1.22708,-1.88475 -2.32652,-1.88478 -1.07984,3e-5 -1.93388,0.18655 -2.56212,0.55955 -1.39396,0.86388 -2.40507,3.16095 -3.03332,6.89122"
         style="fill:#7fad9a;font-family:Contrail One;-inkscape-font-specification:Contrail One"
         id="path3005" />
      <path
         d="m 284.45624,202.27144 c 0.43191,0.15709 0.64787,0.53012 0.64789,1.11908 l -0.67734,5.33039 c -0.0393,0.39269 -0.31415,0.58902 -0.82459,0.589 -0.49085,2e-5 -0.96204,-0.0981 -1.41358,-0.2945 -1.90444,-0.84419 -3.4849,-1.26631 -4.7414,-1.26634 -1.25654,3e-5 -2.25782,0.52031 -3.00387,1.56084 -0.74607,1.04058 -1.34488,2.53269 -1.79643,4.47635 -0.84423,3.63214 -1.26634,6.95014 -1.26633,9.95399 -10e-6,4.82975 1.24669,7.24462 3.74011,7.24461 1.80623,1e-5 3.26889,-0.22577 4.388,-0.67734 1.11906,-0.47118 1.84549,-0.70678 2.17927,-0.70679 0.68714,1e-5 1.03072,0.2945 1.03074,0.88349 l -0.61844,5.18314 c -0.0393,0.3534 -0.11782,0.56936 -0.2356,0.6479 -0.0982,0.0589 -0.23562,0.12761 -0.41229,0.20614 -2.37563,0.68716 -4.6138,1.03074 -6.71453,1.03074 -2.08112,0 -3.7303,-0.26505 -4.94754,-0.79514 -1.19763,-0.53009 -2.14984,-1.20743 -2.85662,-2.03203 -0.7068,-0.84422 -1.27616,-1.85532 -1.70808,-3.03331 -0.7657,-2.02221 -1.14854,-4.50579 -1.14854,-7.45077 0,-2.96458 0.18651,-5.53652 0.55954,-7.71581 0.39266,-2.19889 0.79514,-3.9855 1.20744,-5.35984 0.43192,-1.37429 1.00128,-2.68971 1.70808,-3.94626 0.70678,-1.27612 1.53137,-2.32649 2.47377,-3.15111 2.06147,-1.80622 4.79047,-2.70934 8.18701,-2.70937 2.27742,3e-5 4.35853,0.30434 6.24333,0.91294"
         style="fill:#7fad9a;font-family:Contrail One;-inkscape-font-specification:Contrail One"
         id="path3007" />
      <path
         d="m 294.14518,201.74134 c 0.45155,-4.31924 0.74605,-6.5476 0.88349,-6.68507 0.13742,-0.15703 0.34357,-0.24538 0.61844,-0.26505 l 5.62489,-0.20615 c 0.53008,0.0393 0.79513,0.28472 0.79514,0.73624 -0.37304,2.17932 -0.68717,4.27024 -0.94239,6.27278 l 6.86178,-0.23559 c 0.47117,0.0197 0.70677,0.27489 0.70679,0.76569 l -0.82459,4.68249 c -0.0786,0.47123 -0.32397,0.71664 -0.73624,0.73625 l -6.74398,0.26504 c -1.33506,12.01549 -2.00259,18.64166 -2.00258,19.87853 -10e-6,2.29708 0.98165,3.44562 2.94497,3.44561 1.00127,10e-6 1.97311,-0.15706 2.91552,-0.47119 0.94237,-0.31412 1.53136,-0.47119 1.76698,-0.4712 0.41227,1e-5 0.61842,0.25524 0.61844,0.7657 l -0.61844,5.15369 c -0.0393,0.2945 -0.11782,0.51046 -0.2356,0.64789 -0.0982,0.13743 -0.57919,0.30431 -1.44303,0.50064 -0.84424,0.19634 -2.29709,0.2945 -4.35855,0.2945 -3.02351,0 -5.26169,-0.69697 -6.71453,-2.09093 -1.45285,-1.41358 -2.17928,-3.51432 -2.17927,-6.30222 -1e-5,-2.7879 0.7755,-9.87544 2.32652,-21.26267 l -2.88607,0.1178 c -0.49083,-0.0196 -0.73624,-0.26502 -0.73624,-0.73624 l 0.79514,-4.7414 c 0.0589,-0.45152 0.31413,-0.68712 0.76569,-0.70679 l 2.79772,-0.0883"
         style="fill:#7fad9a;font-family:Contrail One;-inkscape-font-specification:Contrail One"
         id="path3009" />
      <path
         d="m 342.67824,217.08462 -9.15885,0.3534 -1.38413,12.07436 11.27922,-0.38284 c 0.51044,0.0196 0.76567,0.27487 0.76569,0.76569 l -0.76569,6.09608 c -0.0393,0.4123 -0.29452,0.66753 -0.76569,0.76569 l -18.11155,0.58899 c -0.43193,0 -0.64789,-0.18651 -0.64789,-0.55954 l 5.09479,-44.55735 c 0.0785,-0.41225 0.33376,-0.63803 0.7657,-0.67735 l 16.13842,-0.55954 c 0.4908,0.059 0.73621,0.32399 0.73624,0.79514 l -0.73624,6.09608 c -0.0589,0.49087 -0.31416,0.75592 -0.7657,0.79515 l -9.48279,0.26504 -1.26634,10.95528 9.0705,-0.32395 c 0.51044,0.0197 0.76567,0.27489 0.76569,0.7657 l -0.76569,6.00773 c -0.0786,0.45158 -0.33378,0.69699 -0.76569,0.73624"
         style="fill:#7fad9a;font-family:Contrail One;-inkscape-font-specification:Contrail One"
         id="path3011" />
      <path
         d="m 376.51591,202.38923 -3.82846,33.95548 c -0.0589,0.51046 -0.31415,0.7755 -0.76569,0.79514 l -5.94883,0.20614 c -0.41232,-0.0393 -0.61847,-0.22578 -0.61845,-0.55954 l 0.55955,-4.00516 c -0.90314,1.53139 -1.89462,2.70938 -2.97442,3.53397 -1.0602,0.82459 -2.25782,1.23688 -3.59286,1.23688 -1.33506,0 -2.47378,-0.22578 -3.41616,-0.67734 -0.9424,-0.47119 -1.71791,-1.07982 -2.32653,-1.82588 -0.589,-0.76569 -1.07001,-1.67863 -1.44303,-2.73882 -0.68716,-1.88477 -1.03074,-4.45671 -1.03074,-7.71581 0,-3.27872 0.21596,-6.0568 0.64789,-8.33426 0.45156,-2.27742 0.84422,-4.00513 1.17799,-5.18314 0.33376,-1.1976 0.7755,-2.42466 1.32524,-3.68121 0.56935,-1.25649 1.20742,-2.30686 1.91423,-3.15112 1.6099,-1.92401 3.64193,-2.88603 6.09608,-2.88606 1.82586,3e-5 3.21981,0.44178 4.18185,1.32523 0.962,0.86389 1.76696,2.14986 2.41487,3.85791 l 0.3534,-4.00516 c 0.0392,-0.43189 0.28466,-0.66749 0.73624,-0.70679 l 5.77214,-0.20615 c 0.51043,0.0393 0.76566,0.29453 0.76569,0.76569 m -17.9643,21.35102 c -10e-6,4.69232 1.25651,7.03847 3.76956,7.03847 1.09944,0 1.99274,-0.50064 2.67992,-1.50194 0.68714,-1.02091 1.27613,-3.05293 1.76698,-6.09608 0.51044,-3.04311 0.76567,-5.26165 0.76569,-6.65562 -2e-5,-1.39393 -0.01,-2.27742 -0.0294,-2.65047 -0.0196,-0.37301 -0.0589,-0.86384 -0.1178,-1.47249 -0.0589,-0.62823 -0.1669,-1.14851 -0.32395,-1.56083 -0.15708,-0.4319 -0.36323,-0.86383 -0.61844,-1.29579 -0.51048,-0.84419 -1.33507,-1.2663 -2.47377,-1.26633 -1.13874,3e-5 -2.04186,0.51049 -2.70937,1.53138 -0.66754,1.00132 -1.18782,2.34618 -1.56083,4.03461 -0.76571,3.61251 -1.14855,6.91087 -1.14854,9.89509"
         style="fill:#7fad9a;font-family:Contrail One;-inkscape-font-specification:Contrail One"
         id="path3013" />
      <path
         d="m 396.68894,238.28838 0.76569,-6.33168 c -0.98167,1.80625 -2.03204,3.19039 -3.15111,4.15241 -1.09947,0.96202 -2.35599,1.44303 -3.76956,1.44303 -1.39396,0 -2.56213,-0.22578 -3.50451,-0.67734 -0.9424,-0.47119 -1.7179,-1.07982 -2.32652,-1.82588 -0.589,-0.76569 -1.07001,-1.67863 -1.44304,-2.73882 -0.68716,-1.88477 -1.03074,-4.45671 -1.03074,-7.71581 0,-3.27872 0.21596,-6.0568 0.6479,-8.33426 0.45155,-2.27742 0.84421,-4.00513 1.17798,-5.18314 0.33376,-1.1976 0.7755,-2.42466 1.32524,-3.68121 0.56935,-1.25649 1.20743,-2.30686 1.91423,-3.15112 1.6099,-1.92401 3.64193,-2.88603 6.09608,-2.88606 1.80623,3e-5 3.19036,0.43196 4.1524,1.29578 0.962,0.86389 1.77678,2.14986 2.44433,3.85791 l 0.29449,-3.94626 c 0.0393,-0.47116 0.29448,-0.71657 0.76569,-0.73624 l 5.94884,-0.20615 c 0.41226,0.0589 0.61841,0.26508 0.61844,0.61845 l -4.00516,35.72245 c -0.56938,5.2813 -2.20874,9.04104 -4.91809,11.27922 -2.14003,1.7866 -5.01628,2.67991 -8.62875,2.67992 -2.29709,-10e-6 -4.62361,-0.26506 -6.97958,-0.79514 -0.33376,-0.0589 -0.55954,-0.14726 -0.67734,-0.26505 -0.1178,-0.0982 -0.1767,-0.29451 -0.1767,-0.58899 l 0.589,-5.33039 c 0.0589,-0.5301 0.27486,-0.79515 0.64789,-0.79514 0.25522,-10e-6 0.97183,0.19632 2.14983,0.58899 1.17797,0.39266 2.49339,0.58899 3.94625,0.58899 1.45284,0 2.58174,-0.13743 3.38671,-0.41229 0.82458,-0.25524 1.48229,-0.69698 1.97313,-1.32524 0.86384,-1.06019 1.45283,-2.82717 1.76698,-5.30094 m -7.03847,-14.54813 c -10e-6,4.69232 1.25651,7.03847 3.76956,7.03847 1.09944,0 1.99274,-0.50064 2.67992,-1.50194 0.68714,-1.02091 1.27613,-3.05293 1.76698,-6.09608 0.51044,-3.04311 0.76567,-5.26165 0.76569,-6.65562 -2e-5,-1.39393 -0.01,-2.27742 -0.0294,-2.65047 -0.0196,-0.37301 -0.0589,-0.86384 -0.1178,-1.47249 -0.0589,-0.62823 -0.1669,-1.14851 -0.32394,-1.56083 -0.15709,-0.4319 -0.36324,-0.86383 -0.61845,-1.29579 -0.51048,-0.84419 -1.33507,-1.2663 -2.47377,-1.26633 -1.13874,3e-5 -2.04186,0.51049 -2.70937,1.53138 -0.66754,1.00132 -1.18782,2.34618 -1.56083,4.03461 -0.76571,3.61251 -1.14855,6.91087 -1.14854,9.89509"
         style="fill:#7fad9a;font-family:Contrail One;-inkscape-font-specification:Contrail One"
         id="path3015" />
      <path
         d="m 425.10789,188.19449 -5.41874,48.12077 c -0.0393,0.27486 -0.108,0.47119 -0.20615,0.58899 -0.0982,0.1178 -0.28469,0.18651 -0.55955,0.20615 l -5.91938,0.23559 c -0.43193,-0.0393 -0.6479,-0.22578 -0.64789,-0.55954 l 5.44819,-48.38581 c 0.0392,-0.27481 0.10797,-0.47115 0.20614,-0.58899 0.0982,-0.11775 0.28468,-0.18647 0.55955,-0.20615 l 5.77213,-0.20615 c 0.51045,0.059 0.76568,0.324 0.7657,0.79514"
         style="fill:#7fad9a;font-family:Contrail One;-inkscape-font-specification:Contrail One"
         id="path3017" />
      <path
         d="m 430.29101,231.72111 c -0.45157,-1.17798 -0.7657,-2.33634 -0.94239,-3.47506 -0.15707,-1.15835 -0.23561,-2.73881 -0.2356,-4.7414 -1e-5,-2.00256 0.21596,-4.47633 0.64789,-7.42132 1.43321,-9.81653 5.88993,-14.7248 13.37015,-14.72483 2.88605,3e-5 5.09477,0.9915 6.62618,2.97441 1.53136,1.98298 2.29705,4.55491 2.29707,7.71582 -2e-5,3.16095 -0.19635,6.23353 -0.58899,9.21774 -0.0589,0.53011 -0.36324,0.80498 -0.91294,0.82459 l -14.54814,0.50065 c -0.0196,0.29451 -0.0295,0.68717 -0.0294,1.17799 -10e-6,2.21855 0.38284,3.97571 1.14854,5.27149 0.78531,1.29579 1.9633,1.94368 3.53396,1.94367 1.57063,1e-5 3.02348,-0.22577 4.35855,-0.67734 1.35467,-0.47118 2.14981,-0.70678 2.38542,-0.70679 0.23558,1e-5 0.44173,0.0785 0.61845,0.2356 0.17667,0.15707 0.26502,0.37303 0.26504,0.64789 l -0.58899,5.18314 c -0.0197,0.2945 -0.0786,0.49083 -0.1767,0.589 -0.0786,0.0785 -0.24543,0.16688 -0.50064,0.26504 -2.37563,0.68716 -4.66288,1.03074 -6.86177,1.03074 -2.19893,0 -3.90701,-0.26505 -5.12425,-0.79514 -1.21726,-0.53009 -2.19891,-1.20743 -2.94496,-2.03203 -0.72644,-0.84422 -1.32525,-1.84551 -1.79643,-3.00386 m 6.42002,-16.52127 -0.26504,1.88478 7.68636,-0.38285 c 0.33374,-0.0196 0.54971,-0.0785 0.64789,-0.17669 0.29448,-0.29448 0.44173,-1.09944 0.44175,-2.41488 -2e-5,-1.33502 -0.0491,-2.2676 -0.14725,-2.79772 -0.0786,-0.5497 -0.2258,-1.10924 -0.44174,-1.67863 -0.45159,-1.25649 -1.22709,-1.88475 -2.32653,-1.88478 -1.07984,3e-5 -1.93388,0.18655 -2.56212,0.55955 -1.39396,0.86388 -2.40507,3.16095 -3.03332,6.89122"
         style="fill:#7fad9a;font-family:Contrail One;-inkscape-font-specification:Contrail One"
         id="path3019" />
    </g>
    <path
       style="fill:#7fad9a;fill-opacity:1;fill-rule:nonzero;stroke:none"
       d="M 139.96875 160.09375 C 62.673541 160.09375 0 180.50757 0 205.65625 C 0 230.80493 62.673541 251.1875 139.96875 251.1875 C 217.26396 251.1875 279.90625 230.80493 279.90625 205.65625 C 279.90625 180.50757 217.26396 160.09375 139.96875 160.09375 z M 102.5625 162.875 C 102.5625 162.875 106.403 162.95114 108.3125 163.5625 C 110.22199 164.17386 108.78933 164.6138 110.9375 165.3125 C 113.08569 166.01124 115.45151 165.30688 116.40625 165.65625 C 117.36098 166.00562 117.625 168.03125 117.625 168.03125 C 117.625 168.03125 128.60183 167.85098 130.75 168.375 C 132.89819 168.89902 131.44288 169.32213 132.875 171.15625 C 134.30713 172.99037 135.03337 171.34694 138.375 169.6875 C 141.71664 168.02803 139.0926 169.24377 144.34375 169.15625 C 149.59485 169.06887 147.21283 169.33573 148.40625 168.375 C 149.5997 167.41427 149.59589 167.50658 152.9375 167.59375 C 156.27911 167.68109 154.85986 167.59214 159.15625 166.71875 C 163.45262 165.84536 162.23812 166.87657 164.625 167.75 C 167.01188 168.62339 166.05331 167.39265 169.15625 166.78125 C 172.25916 166.16989 171.32368 166.79485 171.5625 167.40625 C 171.80118 168.01761 172.04202 167.3319 174.90625 167.59375 C 177.77052 167.85578 175.61908 168.09454 176.8125 168.53125 C 178.00592 168.96793 178.70415 168.19935 180.375 167.9375 C 182.04578 167.67547 182.54791 168.7306 184.21875 168.46875 C 185.88956 168.20655 187.78338 168.36938 191.125 168.71875 C 194.46659 169.06808 194.23276 169.40786 195.1875 170.28125 C 196.14224 171.15464 195.65625 171.50079 195.65625 171.9375 C 195.65625 172.37418 198.05654 171.84536 199.25 172.71875 C 200.44346 173.59214 197.34107 174.29489 196.625 174.90625 C 195.90893 175.51765 195.17677 176.1386 192.3125 176.75 C 189.44827 177.36136 188.27379 177.62661 183.5 178.5 C 178.72628 179.37339 178.47794 179.53207 175.375 179.96875 C 172.27206 180.40546 172.26508 181.10739 167.96875 181.71875 C 163.67238 182.33015 163.19074 182.85735 161.28125 183.46875 C 159.37158 184.08015 159.39165 184.59776 161.0625 186.78125 C 162.73328 188.96471 164.39706 186.8798 167.5 186.09375 C 170.60294 185.3077 170.84643 186.00161 171.5625 186.875 C 172.27853 187.74839 173.69823 186.96252 176.5625 186.875 C 179.42673 186.78769 178.70687 187.24438 181.09375 187.59375 C 183.48059 187.94308 182.05926 188.45594 183.96875 188.28125 C 185.87827 188.10656 186.82368 188.38223 187.0625 188.90625 C 187.30118 189.43031 188.74081 189.77563 191.84375 190.125 C 194.94662 190.47437 194.95956 190.1875 198.0625 190.1875 C 201.16544 190.1875 201.6304 190.46957 203.0625 190.90625 C 204.49463 191.34296 204.7268 192.2069 206.875 192.46875 C 209.02317 192.73078 210.92562 193.60177 213.3125 194.5625 C 215.69934 195.52323 216.1789 195.6202 216.65625 196.40625 C 217.13364 197.1923 218.81787 198.67708 220.25 199.8125 C 221.68203 200.94792 221.43213 201.73156 220 201.90625 C 218.56801 202.08094 218.1018 203.03204 220.25 203.46875 C 222.39817 203.90543 224.5393 205.12181 226.6875 206.78125 C 228.83581 208.44069 228.11636 208.1138 228.59375 208.8125 C 229.0711 209.51124 228.82654 209.40145 229.78125 210.1875 C 230.73603 210.97341 229.31846 210.71313 228.125 211.0625 C 226.93144 211.41183 227.15625 211.34454 227.15625 211.78125 C 227.15625 212.21793 228.37173 212.12579 230.28125 212.5625 C 232.19088 212.99918 231.22143 213.09454 231.9375 213.53125 C 232.65357 213.96793 231.69614 214.40707 231.21875 214.84375 C 230.74111 215.28046 231 215.62582 231 216.0625 C 231 216.49921 231.95474 217.08813 231 217.4375 C 230.04526 217.78652 229.06842 217.4569 227.875 217.71875 C 226.68154 217.98074 228.82368 218.40707 229.0625 218.84375 C 229.30118 219.28064 227.86967 219.1875 226.4375 219.1875 C 225.0054 219.1875 225.98276 219.79485 226.9375 220.40625 C 227.89228 221.01761 228.82922 220.68993 230.5 222 C 232.17081 223.3101 230.03125 222.78125 230.03125 222.78125 C 230.03125 222.78125 228.82368 223.12582 229.0625 223.5625 C 229.30118 223.99921 229.56518 224.00161 230.28125 224.875 C 230.99732 225.74821 230.74463 225.84375 229.3125 225.84375 C 227.8804 225.84375 225.96603 225.93829 225.25 226.375 C 224.5339 226.81168 226.20419 227.06411 227.875 227.9375 C 229.54578 228.81089 229.30982 228.73239 228.59375 229.34375 C 227.87772 229.95511 226.21934 229.15543 223.59375 228.71875 C 220.96819 228.28204 222.16221 228.1987 220.96875 227.5 C 219.77529 226.80126 219.53452 226.86842 217.625 226.78125 C 215.71551 226.69394 217.13033 227.14583 218.5625 228.28125 C 219.99446 229.41681 219.29526 228.90145 220.25 229.6875 C 221.20478 230.47358 220.72467 230.64505 219.53125 231.34375 C 218.41075 231.50858 217.26341 231.13913 215.9375 230.125 C 215.04933 229.61809 215.97631 229.96273 213.5625 228.28125 C 212.09709 227.66758 212.13684 227.31873 209.75 227.40625 C 210.28125 227.78723 210.39201 228.19381 211.40625 229.34375 C 213.07706 230.65385 212.83786 231.15224 214.03125 232.375 C 215.22471 233.59772 215.22143 234.21474 215.9375 235.4375 C 216.06995 236.58015 215.41665 236.91735 214.03125 237.28125 C 212.71884 237.24468 212.31574 236.891 210.40625 235.40625 C 209.59104 233.86806 208.3211 233.33494 207.84375 231.9375 C 207.36636 230.54009 206.15088 229.50401 204.71875 228.28125 C 203.28665 227.05849 203.30713 226.44312 201.875 226.09375 C 201.61024 226.41176 202.01232 227.18993 202.125 227.96875 C 202.60097 228.66745 202.83257 229.49764 202.59375 231.59375 C 202.35504 233.6899 202.35235 233.61455 201.875 234.75 C 201.39761 235.88538 201.16221 237.19473 199.96875 237.71875 C 197.89985 237.84238 197.27437 237.60249 196.84375 236.65625 C 196.34156 235.65665 196.61382 235.62819 196.375 233.96875 C 196.13618 232.30931 195.85493 231.30849 196.09375 229.125 C 195.6029 227.66225 195.67349 226.98557 194.71875 225.9375 C 193.76404 224.88943 193.74732 224.6114 193.03125 224 C 192.31518 223.38864 191.61099 223.28848 190.65625 223.8125 C 189.7014 224.33656 189.9289 226.1851 190.40625 228.28125 C 189.93527 230.40408 189.5086 231.23958 189.03125 232.375 C 188.40798 233.43034 187.36934 233.45613 186.59375 233.53125 C 185.9641 233.6064 185.04739 233.35578 184.21875 232.5625 C 184.26588 231.52892 184.375 230.95994 184.375 229.5625 C 184.375 228.16509 183.95757 227.85896 183.71875 225.9375 C 183.48011 224.01604 183.02007 223.90382 182.78125 222.59375 C 182.54243 221.28365 183.24732 220.51042 182.53125 219.375 C 181.81518 218.23958 182.78449 218.0601 180.875 216.75 C 178.96551 215.43993 176.8125 214.13219 176.8125 214.65625 C 176.8125 215.18027 176.80132 216.04485 176.5625 216.65625 C 176.32382 217.26761 174.88953 216.58015 173.21875 215.96875 C 171.54794 215.35739 171.54853 214.72995 170.59375 214.03125 C 169.63901 213.33255 170.10831 212.81569 168.4375 211.15625 C 166.76669 209.49681 167.02585 209.41667 165.59375 208.28125 C 164.16162 207.14583 161.99192 206.6987 159.84375 206 C 157.69555 205.3013 157.72467 205.13062 156.53125 204.78125 C 155.3378 204.43192 152.94936 203.66187 150.5625 203.3125 C 148.17561 202.96313 146.73329 203.0431 145.0625 202.78125 C 143.39168 202.51926 142.92674 201.47355 140.0625 200.6875 C 137.19826 199.90145 136.71069 199.81171 134.5625 199.375 C 132.4143 198.93829 131.20799 197.89344 128.34375 197.71875 C 125.47949 197.54406 127.63629 198.75236 127.875 200.0625 C 128.11368 201.3726 126.69345 201.8261 125.5 202.4375 C 124.30657 203.04886 124.27857 203.74037 123.5625 205.3125 C 122.84645 206.88459 122.61424 206.3638 119.75 207.0625 C 116.88576 207.76124 118.81575 208.53286 116.90625 209.40625 C 114.99675 210.27964 118.33837 211.41427 116.90625 212.375 C 115.47413 213.33573 111.63955 212.99918 109.96875 212.5625 C 108.29794 212.12579 111.88687 215.35094 109.5 215.875 C 105.68101 215.52563 104.47199 216.5 102.5625 216.5 C 100.653 216.5 100.17887 217.62103 100.65625 218.84375 C 101.13362 220.06633 93.97143 219.45755 94.6875 220.15625 C 95.403549 220.85513 93.264565 221.125 91.59375 221.125 C 89.922932 221.125 89.21875 220.25 89.21875 220.25 C 89.21875 220.25 89.454769 221.04489 88.5 221.65625 C 87.545252 222.26765 86.80712 222.07435 85.375 221.8125 C 83.94288 221.55047 82.03125 220.5 82.03125 220.5 C 82.03125 220.5 83.005921 224.68832 81.8125 225.125 C 80.619054 225.56168 79.892248 224.8798 78.9375 224.09375 C 77.982752 223.3077 76.5625 222 76.5625 222 C 76.5625 222 77.27587 227.67565 75.84375 227.9375 C 74.41163 228.19953 72.974692 227.24198 71.78125 226.28125 C 70.587825 225.32052 71.3125 222.09375 71.3125 222.09375 C 71.3125 222.09375 68.43482 226.3638 67.71875 227.0625 C 67.002701 227.7612 63.443421 228.09937 62.25 227.75 C 61.056554 227.40067 63.891682 223.57771 65.5625 221.65625 C 67.233293 219.73479 72.494637 217.72437 71.0625 217.375 C 69.630363 217.02563 68.681554 217.00401 69.875 215.78125 C 71.068425 214.55853 76.089398 213.87822 83.25 212.21875 C 90.410623 210.55931 92.297953 207.94151 93.96875 206.71875 C 95.639568 205.49603 94.9375 204.0048 94.9375 203.21875 C 94.9375 202.4327 100.18482 199.12339 99.46875 198.25 C 98.752704 197.37661 94.219312 197.2612 91.59375 196.5625 C 88.968184 195.86376 85.61962 194.39823 84.1875 193.4375 C 82.75538 192.47677 84.448787 191.58577 84.6875 190.625 C 84.926198 189.66427 83.241378 188.02241 83.71875 186.625 C 84.196122 185.22756 86.56788 184.42565 88 184.6875 C 89.432137 184.94949 88.730073 185.47594 88.96875 186 C 89.207448 186.52402 95.40625 188.625 95.40625 188.625 C 95.40625 188.625 98.272084 188.27406 101.375 187.75 C 104.47794 187.22598 106.639 186.43589 107.59375 185.5625 C 108.5485 184.68911 108.3098 184.34214 107.59375 183.46875 C 106.87768 182.59536 101.62824 181.65464 99.71875 180.78125 C 97.809237 179.90786 97.55982 177.63624 96.84375 176.9375 C 96.127701 176.23897 94.230617 176.48719 91.84375 176.3125 C 89.456883 176.13817 82.989239 176.31873 80.125 176.40625 C 77.260757 176.49359 75.11962 175.87421 73.6875 175.4375 C 71.539331 174.65145 72.508078 174.29729 74.65625 172.8125 C 76.80444 171.32775 75.84375 173.69469 75.84375 174.21875 C 75.84375 174.74295 77.277983 174.40002 79.1875 174.3125 C 81.096992 174.22498 84.1875 174.21875 84.1875 174.21875 C 84.1875 174.21875 83.488677 173.76761 83.25 173.15625 C 83.011305 172.54489 87.537196 171.15707 86.34375 171.59375 C 85.150329 172.03046 87.06788 173.15707 88.5 173.59375 C 89.932123 174.03046 92.323787 173.59293 92.5625 173.15625 C 92.801174 172.71954 93.977938 170.5431 90.875 170.28125 C 87.772062 170.01922 85.875 170.46875 85.875 170.46875 C 85.875 170.46875 86.343184 169.93668 88.96875 169.5 C 91.594316 169.06329 93.519383 169.84532 95.90625 170.71875 C 98.293117 171.5921 96.59375 172.3013 96.59375 173 C 96.59375 173.6987 97.5625 173.875 97.5625 173.875 C 97.5625 173.875 101.15244 174.05688 105.6875 174.40625 C 110.22255 174.75558 112.36907 176.06329 113.5625 176.5 C 114.75594 176.93654 116.41431 177.28046 118.5625 176.84375 C 120.71069 176.40707 116.1735 173.67948 115.21875 172.71875 C 114.264 171.75802 114.5 169.5 114.5 169.5 C 114.5 169.5 105.90951 168.53125 104 168.53125 C 102.0905 168.53125 101.38094 168.70594 100.1875 168.53125 C 98.994075 168.35656 99.46875 167.5 99.46875 167.5 C 99.46875 167.5 97.787175 167.57435 96.59375 167.3125 C 95.400308 167.05047 93.96875 165.1362 93.96875 164.4375 C 93.96875 163.7388 98.53125 163.75 98.53125 163.75 L 97.8125 165.75 C 97.8125 165.75 100.42295 165.56873 102.09375 165.65625 C 103.76457 165.74359 107.59375 166.28125 107.59375 166.28125 C 107.59375 166.28125 106.6223 165.04249 105.90625 164.34375 C 105.19018 163.64505 102.5625 162.875 102.5625 162.875 z "
       transform="matrix(0.28222223,0,0,0.28222223,48.028178,172.73247)"
       id="ellipse3877" />
    <path
       inkscape:connector-curvature="0"
       d="m 77.470017,208.6697 c 0.3017,-0.25187 0.754256,-0.6045 1.35766,-0.55413 0.603406,0.0503 1.961069,0.15112 2.463904,0.0503 0.502838,-0.10082 0.905106,0.0503 1.055955,-0.35263 0.150843,-0.40304 0.201125,-1.71284 0.603406,-2.21662 0.40227,-0.50377 1.508509,-1.05793 1.659363,-1.56171 0.150829,-0.50379 0.201125,-0.7053 0,-1.20906 -0.201126,-0.50378 -0.653688,-0.9572 -1.307378,-1.25948 -0.653682,-0.30227 -1.257092,-0.50374 -1.257092,-0.50374 0,0 -1.307376,1.20905 -1.357662,1.51132 -0.05029,0.30229 0.100585,0.60454 -0.201124,0.75566 -0.301705,0.15111 -0.804539,-0.30227 -0.905105,-1.10829 -0.100585,-0.80606 0.25142,-1.76323 0.201125,-2.31739 -0.05029,-0.55416 -0.402269,-1.05795 -0.100585,-1.6121 0.3017,-0.55415 1.005672,-1.41056 1.558794,-1.81359 0.553123,-0.40303 1.508514,-0.45343 1.659361,-0.95718 0.150859,-0.50379 -0.95539,-2.41817 -0.95539,-2.87157 0,-0.45338 0.150874,-1.3098 -0.201143,-2.01509 -0.351984,-0.70531 -0.754254,-2.21664 -2.262768,-3.17384 -1.508508,-0.95717 -2.56447,-1.36015 -2.815888,-2.06546 -0.25142,-0.7053 -0.05029,-0.7053 0.251418,-0.90682 0.301704,-0.20148 -0.80454,-1.36019 -1.156523,-2.46849 -0.351986,-1.10831 -0.95539,-3.32494 -0.70397,-3.52645 0.251417,-0.20149 1.005673,0 1.156522,0.40302 0.150875,0.40302 0.754255,2.87153 0.754255,2.87153 0,0 -0.150828,-1.86399 0.100585,-2.41814 0.251421,-0.55415 0.553123,-1.10829 0.854823,-0.95718 0.301701,0.15112 0.150828,3.42572 0.150828,3.42572 0,0 0.301707,-0.7557 0.502842,-1.2091 0.201126,-0.45338 0.351983,-0.85641 0.603405,-0.60454 0.251415,0.25192 0.05029,2.67003 0.05029,2.67003 0,0 0.402275,-0.60452 0.703974,-0.75563 0.301703,-0.15112 0.452551,-0.25192 0.653688,0.10082 0.201145,0.35265 0.150844,0.80607 0.150844,0.80607 0,0 0.150828,-0.5038 0.502836,-0.5038 0.351986,0 0.804537,0.15111 0.653688,0.55417 -0.150859,0.403 1.35766,0.0503 1.257093,0.75565 -0.100585,0.70532 0,1.3602 0.402271,1.3602 0.402267,0 0.653689,0.55416 1.458227,0.35264 0.502834,0.30227 -0.251419,2.16627 0.100585,1.91436 0.351987,-0.25188 1.156528,-0.45339 1.458231,0.10082 0.301701,0.55414 -0.402272,1.20905 0,1.71285 0.402268,0.50375 0,0.95718 0.6034,1.3602 0.603406,0.403 0.653693,0.10082 0.804541,1.00754 0.150874,0.90681 0.150874,1.30984 0.40227,1.66247 0.251421,0.35265 0.553124,0.60455 0.502842,1.36021 -0.05029,0.75569 -0.502842,1.46097 0.100585,1.36021 0.603403,-0.10082 0.854819,-0.7053 1.307376,-0.95717 0.452556,-0.2519 0.553124,-0.30227 1.156528,-0.75567 0.603403,-0.45343 0.70397,-1.05794 1.055958,-1.2091 0.351982,-0.15111 0.653683,-0.10082 1.156524,-0.30224 0.502832,-0.20149 1.005674,-0.65493 1.257098,-0.85643 0.251416,-0.2015 0.251416,-0.30228 0.70397,-0.70531 0.452551,-0.403 0.905101,-0.6549 1.206806,-1.30981 0.301696,-0.6549 0.251423,-0.7053 0.603407,-1.66248 0.351986,-0.95717 0.251416,-1.25944 0.452551,-1.66245 0.201146,-0.40303 0.201146,-0.75566 0.553128,-1.10832 0.351979,-0.35264 0.653683,-0.75566 0.703965,-0.40302 0.05031,0.35265 0.05031,0.85641 0.05031,1.15869 0,0.30226 0.452555,-0.45341 0.854829,-1.20908 0.40227,-0.75565 0.20112,-0.85641 0.35199,-1.51132 0.15087,-0.65493 0,-1.10833 0.0503,-1.86398 0.0503,-0.75567 0.15084,-0.80605 0.20112,-1.91434 0.0503,-1.10833 0.13966,-1.29444 0.13966,-2.10049 0,-0.80605 -0.0292,-1.13208 -0.0391,-1.72823 0.17456,-0.4576 0.37018,-0.59752 0.50282,-0.55417 0.16339,0.0435 0.38273,0.046 0.51403,0.6549 0.10059,0.65492 0.19128,1.14331 0.29051,2.36778 -0.10058,1.20906 -0.15083,2.26699 0.0503,2.56926 0.20112,0.30227 0.35198,0.25189 0.50283,-0.10082 0.15088,-0.35263 0.15088,-0.50375 0.35199,-1.10829 0.20112,-0.60455 0.18844,-1.00068 0.29185,-1.84441 -0.0503,-1.25944 0.01,-1.83316 0.0602,-2.79035 0.0503,-0.95719 -0.005,-0.98514 0.10059,-1.56171 0.0907,-0.54578 0.21784,-0.67585 0.65369,-0.60454 0.25142,0.30227 0.3017,1.05793 0.40227,1.71283 0.10058,0.65494 0.10058,0.60455 0.15087,1.81362 0.0503,1.20907 0.007,1.69176 -0.0936,2.09478 -0.0237,0.4492 -0.11311,0.89559 -0.0573,1.07901 0.3017,-0.2015 0.3017,-0.55414 0.6034,-1.25944 0.30171,-0.70528 0.55312,-1.30982 0.65369,-2.11586 0.10059,-0.80604 0.36885,-1.10128 0.54059,-1.98849 0.40227,-0.85643 0.4903,-1.06348 0.76678,-1.08456 0.29185,0.20987 0.43017,0.39884 0.40227,1.05794 -0.15084,0.70528 -0.15084,1.05794 -0.40227,1.76321 -0.25141,0.70531 -0.20113,1.00757 -0.55312,1.76324 -0.21366,0.66328 -0.24007,0.88855 -0.35198,1.10832 0.50283,0.0503 0.49582,-0.14975 0.80453,-0.5038 0.50852,-0.96987 0.31573,-0.76554 0.50284,-1.05792 0.27933,-0.58497 0.51821,-0.80037 0.75427,-0.7053 0.25141,0.40303 0.35198,0.5038 0.15082,0.95718 -0.20112,0.45341 -0.0503,0.15112 -0.35198,0.80604 -0.3017,0.65492 -0.6034,0.90681 -0.20114,0.85643 0.40228,-0.0503 0.45255,0 0.70397,-0.40304 0.25142,-0.403 0,-0.45339 0.55312,-0.70529 0.55313,-0.25187 0.90512,-0.70528 1.05596,-0.35262 0.15088,0.35262 0.20113,0.30225 -0.15082,0.80604 -0.35199,0.50378 -0.70398,0.65491 -0.55313,0.9068 0.15084,0.25189 0.55313,0.30225 0.85483,0.30225 0.3017,0 0.35198,0.0503 0.20111,0.55418 -0.15083,0.50375 -0.20111,0.50375 -0.25141,0.75566 -0.0503,0.25187 0.20112,0.45339 0.20112,0.45339 0,0 0.45255,-0.30226 0.10056,0.45341 -0.35198,0.75567 -0.55311,0.55415 -0.75425,0.9068 -0.20113,0.35265 -0.40226,0.70529 -0.10056,0.70529 0.30171,0 0.60341,-0.0503 0.55313,0.2015 -0.0503,0.25188 -0.50284,0.5038 -0.25142,0.65492 0.25142,0.15111 0.45255,-0.0503 0.65368,0.15111 0.20115,0.2015 0,0.55415 0,0.80604 0,0.2519 -0.0503,0.45342 0.0503,0.70529 0.10056,0.2519 0.30172,0.50377 0.15088,0.75567 -0.15088,0.25188 0.0503,0.30228 -0.35199,0.55415 -0.40228,0.2519 -0.65369,0.2015 -0.65369,0.4534 0,0.25191 -0.0503,0.2015 0.20113,0.40303 0.25143,0.2015 0.55313,0.0503 0.35199,0.50378 -0.20113,0.45339 -0.15084,0.40303 -0.25143,0.80606 -0.10056,0.403 0.0503,0.20147 -0.40226,1.15867 -0.45256,0.95718 -0.90511,1.66247 -1.35767,1.91436 -0.45255,0.2519 -0.35198,0.80606 -0.0503,0.90683 0.30172,0.10069 0.352,0.55414 0.0503,1.20904 -0.3017,0.65491 -0.65368,1.51135 -0.75425,1.96476 -0.10056,0.45339 -0.20113,0.50378 -0.70397,1.05793 -0.50284,0.55416 -0.9051,1.05791 -1.35765,1.20906 -0.45256,0.15113 -0.50284,0.65491 -0.80455,0.90679 -0.3017,0.2519 -0.40227,0.40303 -1.05596,0.40303 -0.65369,0 -0.65369,-0.15111 -1.30736,0.0503 -0.65369,0.2015 -0.9554,0.40303 -1.00568,0.70531 -0.0503,0.30226 -0.25142,0.45337 -0.65369,0.35263 -0.40227,-0.10082 -0.10058,0.2015 -0.6034,0.40303 -0.502844,0.2015 -0.351994,0.4534 -0.955392,0.40303 -0.60341,-0.0503 -0.905115,-0.5038 -1.05596,0 -0.150844,0.50377 -0.201125,0.90679 -0.854824,0.45338 -0.653691,-0.45338 -1.005677,-1.66245 -1.357655,-0.40301 -0.351997,1.25945 -0.351997,1.56172 0.05031,1.91435 0.402268,0.35263 0.502837,0.65491 1.407945,1.00758 0.905097,0.35263 0.905097,0.75566 1.55879,1.00754 0.653687,0.2519 0.703967,0.35264 1.709646,0.85642 1.00567,0.50378 1.25708,0.65492 1.86049,1.00755 0.60341,0.35266 0.75426,0.7053 0.90511,1.05793 0.15088,0.35268 0.80455,0.75567 0.55312,1.25946 -0.25142,0.50377 -0.75425,0.2015 -0.75425,0.45338 0,0.25191 0.10058,0.45342 -0.10059,0.95719 -0.20112,0.50379 -0.15087,0.7053 -0.85481,0.9068 -0.70398,0.20149 -1.10624,0.30227 -1.45823,0.15112 -0.35199,-0.15112 -0.45256,0.45338 -0.804529,0.30225 -0.352,-0.15111 -0.50285,-0.60454 -0.754264,-0.35264 -0.251417,0.2519 0.201123,0.40301 -0.402276,0.55417 -0.603401,0.15111 -0.653683,-0.25191 -0.703966,0.10082 -0.05031,0.35266 0.150828,0.70529 -0.502838,0.35266 -0.65369,-0.35266 -0.452548,-1.05794 -0.955389,-0.55418 -0.502837,0.50378 -0.251421,1.10832 -1.156527,0.60454 -0.905113,-0.50379 -0.603412,-0.55416 -1.30738,-0.50379 -0.703971,0.0503 -0.703971,0.10083 -0.955391,-0.4534 -0.251416,-0.55414 0.25142,-0.40301 -0.854819,-0.45338 -1.106247,-0.0503 -0.553121,0.6549 -1.257097,-0.30227 -0.703971,-0.95719 -0.854824,-1.91434 -1.156526,-0.85642 -0.301702,1.05793 0,1.3098 -0.452554,1.61207 -0.452551,0.30229 -2.765604,0.2015 -2.765604,0.2015 0,0 -0.05029,1.1587 -0.251421,1.36021 -0.201126,0.20146 -0.70397,-0.2015 -1.156524,0.20146 -0.452551,0.40305 -0.150844,0.65494 -0.55312,1.00759 -0.402267,0.35264 -1.206811,0.40301 -1.206811,0.40301 0,0 0.553123,-0.4534 0.703976,-0.85643 0.150828,-0.40301 0.351985,-1.10831 0.351985,-1.10831 0,0 -0.80454,0.30227 -1.156527,0.35264 -0.351985,0.0503 -0.905106,-0.0503 -0.905106,-0.0503 l 0.15083,1.15869 c 0,0 -0.955388,0 -0.955388,-0.403 0,-0.40303 0.301703,-1.51132 0.553124,-1.66247 0.251416,-0.15112 0.603403,-0.10082 0.603403,-0.10082 0,0 -0.100585,-0.50377 0.150828,-0.60453 0.25142,-0.10082 0.402268,0 0.804537,0 0.402273,0 2.212484,-0.55417 2.212484,-0.55417 0,0 -0.05029,-1.30981 0.150874,-1.86396 0.201145,-0.55417 1.156526,-2.1159 0.703973,-2.36776 -0.452558,-0.25188 -0.804538,-0.0503 -1.055959,0.2015 -0.251419,0.25188 -0.703974,1.00755 -1.659362,1.20906 -0.955392,0.2015 -1.709648,0.30227 -1.709648,0.30227 0,0 -0.201126,0.10082 -0.201126,0.50378 0,0.40304 0.351985,0.80607 -0.150875,1.30983 -0.502834,0.50377 -0.905103,0.95718 -1.458226,0.70528 -0.553123,-0.25189 -0.65369,-0.55414 -0.65369,-0.55414 0,0 0.402271,0.25187 1.055959,0.10082 0.65369,-0.15112 0.402269,-1.41058 0.351987,-1.66246 -0.05029,-0.25188 -0.553121,-0.50377 -0.854824,-0.25188 -0.301701,0.25188 -0.703972,0.90679 -0.452555,1.15869 0.251422,0.25187 -0.703969,-0.55417 -0.653685,-0.90681 0.05029,-0.35265 0.201148,-0.60454 0.201148,-0.60454 0,0 -0.653693,0 -1.05596,-0.0503 -0.402275,-0.0503 -0.703977,-0.2519 -0.703977,0.0503 0,0.30228 0.201146,1.66249 -0.251415,0.80604 -0.45255,-0.85639 -0.653684,-1.05792 -0.201124,-1.51134 z"
       id="path3881"
       sodipodi:nodetypes="cccccccccccccccccccccccccccccccccccccccccccccccccccccccccccccccccccccccccccccccccccccccccccccccccccccccccccccccccccccccccccccccccccccccccccccccccccccccccccccccccccccccccccccccccccccccccccccccc"
       style="fill:#7fad9a;fill-opacity:1;fill-rule:evenodd;stroke:none" />
  </g>
</svg>
