<?xml version="1.0" encoding="UTF-8" standalone="no"?>
<!-- Created with Inkscape (http://www.inkscape.org/) -->

<svg
   xmlns:dc="http://purl.org/dc/elements/1.1/"
   xmlns:cc="http://creativecommons.org/ns#"
   xmlns:rdf="http://www.w3.org/1999/02/22-rdf-syntax-ns#"
   xmlns:svg="http://www.w3.org/2000/svg"
   xmlns="http://www.w3.org/2000/svg"
   xmlns:sodipodi="http://sodipodi.sourceforge.net/DTD/sodipodi-0.dtd"
   xmlns:inkscape="http://www.inkscape.org/namespaces/inkscape"
   width="79.251022mm"
   height="69.572083mm"
   viewBox="0 0 79.251022 69.572083"
   version="1.1"
   id="svg8"
   inkscape:version="0.92.2 (unknown)"
   sodipodi:docname="logo.svg">
  <defs
     id="defs2">
    <linearGradient
       id="linearGradient11775">
      <stop
         style="stop-color:#000;stop-opacity:1;"
         offset="0"
         id="stop11776" />
      <stop
         style="stop-color:#fff;stop-opacity:1;"
         offset="1"
         id="stop11777" />
    </linearGradient>
    <marker
       style="overflow:visible"
       refY="0"
       refX="0"
       orient="auto"
       inkscape:stockid="Club"
       id="Club">
      <path
         transform="scale(0.6)"
         style="fill-rule:evenodd;stroke:#000000;stroke-width:0.7458791pt;marker-start:none"
         id="path1015"
         d="m -1.5971367,-7.0977635 c -1.8892507,0 -3.426382,1.5371314 -3.426382,3.4263822 0,0.6566798 0.2383531,1.2269257 0.5594092,1.7481542 -0.038751,0.032111 -0.079672,0.058463 -0.1165436,0.093235 -0.6224234,-0.8549928 -1.5893983,-1.4451409 -2.7271199,-1.4451409 -1.8892515,-1e-7 -3.426382,1.5371314 -3.426382,3.42638214 0,1.88925076 1.5371305,3.42638216 3.426382,3.42638216 0.9934462,0 1.868619,-0.4420611 2.4940326,-1.1188187 -0.124687,0.3548915 -0.2097783,0.7214874 -0.2097783,1.1188187 0,1.8892506 1.5371313,3.4263822 3.426382,3.4263822 1.88925064,0 3.4263821,-1.5371316 3.4263821,-3.4263822 0,-0.7933959 -0.3155586,-1.4938285 -0.7691878,-2.0744763 C 2.4152718,1.7663868 3.7718375,2.2973711 4.7661444,3.8340272 4.0279463,3.0958289 3.5540908,1.7534117 3.5540908,-0.05852936 l -0.6293354,-0.04661745 0.5827179,-0.0233087 c 0,-1.81194107 0.4505466,-3.15435827 1.188745,-3.89255657 -0.9590906,1.4822308 -2.2571634,2.0263625 -3.5662345,2.3075635 0.4041964,-0.5619092 0.6992616,-1.213407 0.6992616,-1.9579327 0,-1.8892506 -1.53713146,-3.4263822 -3.4263821,-3.4263822 z"
         inkscape:connector-curvature="0" />
    </marker>
    <marker
       style="overflow:visible"
       refY="0"
       refX="0"
       orient="auto"
       inkscape:stockid="SemiCircleIn"
       id="SemiCircleIn">
      <path
         transform="scale(0.6)"
         style="fill-rule:evenodd;stroke:#000000;stroke-width:1.00000003pt;marker-start:none;marker-end:none"
         sodipodi:nodetypes="cccc"
         id="path941"
         d="m -0.37450702,-0.04569258 c 0,2.75999998 2.24000002,4.99999998 5.00000002,4.99999998 v -10 c -2.76,0 -5.00000002,2.24 -5.00000002,5.00000002 z"
         inkscape:connector-curvature="0" />
    </marker>
    <marker
       style="overflow:visible"
       refY="0"
       refX="0"
       orient="auto"
       inkscape:stockid="Dot_s"
       id="Dot_s">
      <path
         transform="matrix(0.2,0,0,0.2,1.4250986,0.2)"
         style="fill-rule:evenodd;stroke:#000000;stroke-width:1.00000003pt;marker-start:none;marker-end:none"
         id="path933"
         d="m -2.5,-1 c 0,2.76 -2.24,5 -5,5 -2.76,0 -5,-2.24 -5,-5 0,-2.76 2.24,-5 5,-5 2.76,0 5,2.24 5,5 z"
         inkscape:connector-curvature="0" />
    </marker>
  </defs>
  <sodipodi:namedview
     id="base"
     pagecolor="#ffffff"
     bordercolor="#666666"
     borderopacity="1.0"
     inkscape:pageopacity="0.0"
     inkscape:pageshadow="2"
     inkscape:zoom="0.35"
     inkscape:cx="-1113.9664"
     inkscape:cy="-52.66896"
     inkscape:document-units="mm"
     inkscape:current-layer="layer1"
     showgrid="false"
     inkscape:window-width="1855"
     inkscape:window-height="1056"
     inkscape:window-x="65"
     inkscape:window-y="24"
     inkscape:window-maximized="1"
     inkscape:snap-nodes="true"
     inkscape:snap-global="false"
     inkscape:snap-object-midpoints="false"
     inkscape:snap-bbox="true"
     inkscape:snap-grids="true"
     inkscape:snap-to-guides="true"
     inkscape:snap-smooth-nodes="true"
     showguides="true"
     inkscape:guide-bbox="true"
     inkscape:snap-others="false"
     fit-margin-top="0"
     fit-margin-left="0"
     fit-margin-right="0"
     fit-margin-bottom="0">
    <sodipodi:guide
       position="39.625508,0.12700167"
       orientation="1,0"
       id="guide861"
       inkscape:locked="false" />
  </sodipodi:namedview>
  <metadata
     id="metadata5">
    <rdf:RDF>
      <cc:Work
         rdf:about="">
        <dc:format>image/svg+xml</dc:format>
        <dc:type
           rdf:resource="http://purl.org/dc/dcmitype/StillImage" />
        <dc:title></dc:title>
      </cc:Work>
    </rdf:RDF>
  </metadata>
  <g
     inkscape:label="Layer 1"
     inkscape:groupmode="layer"
     id="layer1"
     transform="translate(-47.498,-177.66207)">
    <path
       style="fill:#ffed6c;fill-opacity:1;fill-rule:evenodd;stroke:none;stroke-width:0.26499999;stroke-linecap:butt;stroke-linejoin:miter;stroke-miterlimit:4;stroke-dasharray:none;stroke-opacity:1"
       d="m 48.426132,231.70987 38.697379,-54.0478 38.697379,54.0478 z"
       id="path863"
       inkscape:connector-curvature="0" />
    <ellipse
       style="opacity:1;fill:#ffed6c;fill-opacity:1;fill-rule:nonzero;stroke:#aa9600;stroke-width:0.25400001;stroke-linecap:round;stroke-linejoin:round;stroke-miterlimit:4;stroke-dasharray:none;stroke-dashoffset:0;stroke-opacity:1"
       id="path859"
       cx="87.123512"
       cy="234.25597"
       rx="39.498512"
       ry="12.85119" />
    <path
       inkscape:connector-curvature="0"
       d="m 68.422639,225.73179 c 0.404176,0.12325 1.010443,0.29579 1.818796,0.27114 0.808352,-0.0247 2.627153,-0.0739 3.30078,-0.0247 0.673627,0.0493 1.212529,-0.0246 1.414614,0.17254 0.202091,0.1972 0.269451,0.83808 0.808358,1.08457 0.538901,0.24649 2.020881,0.51763 2.222972,0.76412 0.202085,0.24649 0.269451,0.34509 0,0.59158 -0.269451,0.24649 -0.875718,0.46833 -1.751436,0.61622 -0.875712,0.1479 -1.68407,0.24649 -1.68407,0.24649 0,0 -1.75143,-0.59157 -1.818796,-0.73946 -0.06736,-0.1479 0.134731,-0.2958 -0.26945,-0.36974 -0.404176,-0.0739 -1.077804,0.14789 -1.212529,0.54228 -0.134725,0.39438 0.336816,0.86271 0.26945,1.13385 -0.06737,0.27115 -0.538901,0.51764 -0.134725,0.78878 0.404176,0.27114 1.347254,0.69017 2.088247,0.88737 0.740992,0.19719 2.020887,0.22184 2.222971,0.46833 0.202091,0.24649 -1.279893,1.18317 -1.279893,1.40501 0,0.22184 0.202091,0.64088 -0.269451,0.98596 -0.471536,0.34509 -1.010437,1.08457 -3.031324,1.5529 -2.020881,0.46834 -3.435506,0.66553 -3.772317,1.01061 -0.336817,0.34509 -0.06737,0.34509 0.336811,0.44369 0.404181,0.0986 -1.077804,0.66552 -1.549339,1.2078 -0.471542,0.54228 -1.279895,1.62685 -0.943078,1.72544 0.33681,0.0986 1.347254,0 1.549339,-0.19719 0.202091,-0.19719 1.010443,-1.405 1.010443,-1.405 0,0 -0.202085,0.91202 0.134726,1.18316 0.336816,0.27114 0.740992,0.54228 1.145168,0.46833 0.404176,-0.0739 0.202085,-1.67614 0.202085,-1.67614 0,0 0.404182,0.36974 0.673633,0.59158 0.269451,0.22184 0.471536,0.41903 0.808353,0.29579 0.33681,-0.12324 0.06736,-1.3064 0.06736,-1.3064 0,0 0.538908,0.29578 0.943084,0.36973 0.404176,0.0739 0.606261,0.12325 0.875712,-0.0493 0.269457,-0.17254 0.202091,-0.39438 0.202091,-0.39438 0,0 0.202085,0.24649 0.673627,0.24649 0.471541,0 1.077803,-0.0739 0.875718,-0.27114 -0.202091,-0.19719 1.818795,-0.0247 1.68407,-0.36974 -0.134726,-0.34508 0,-0.66552 0.538902,-0.66552 0.538901,0 0.875718,-0.27114 1.953521,-0.17254 0.673627,-0.1479 -0.336816,-1.05992 0.134725,-0.93667 0.471536,0.12324 1.549345,0.22184 1.953521,-0.0493 0.404177,-0.27114 -0.538902,-0.59158 0,-0.83807 0.538902,-0.24649 0,-0.46833 0.808352,-0.66553 0.808353,-0.19719 0.875718,-0.0493 1.077804,-0.49298 0.202091,-0.44369 0.202091,-0.64088 0.538903,-0.81342 0.336817,-0.17255 0.740993,-0.29579 0.673633,-0.66553 -0.06737,-0.36975 -0.673633,-0.71483 0.134725,-0.66553 0.808353,0.0493 1.145163,0.34508 1.751433,0.46833 0.606267,0.12325 0.740997,0.1479 1.549348,0.36974 0.808351,0.22184 0.943076,0.51764 1.414618,0.59158 0.471534,0.0739 0.875709,0.0493 1.549343,0.1479 0.673625,0.0986 1.347259,0.32044 1.684076,0.41903 0.33681,0.0986 0.33681,0.1479 0.94308,0.34509 0.60626,0.19719 1.21252,0.32044 1.6167,0.64088 0.40417,0.32044 0.33682,0.34509 0.80836,0.81342 0.47154,0.46833 0.33681,0.61623 0.60626,0.81342 0.26946,0.19719 0.26946,0.36974 0.741,0.54228 0.47153,0.17255 0.87571,0.36974 0.94307,0.1972 0.0674,-0.17255 0.0674,-0.41904 0.0674,-0.56693 0,-0.1479 0.60627,0.22184 1.14517,0.59157 0.5389,0.36974 0.26945,0.41904 0.47154,0.73948 0.20209,0.32044 0,0.54228 0.0674,0.91202 0.0674,0.36973 0.2021,0.39438 0.26945,0.93666 0.0674,0.54228 0.18711,0.63335 0.18711,1.02773 0,0.39439 -0.0391,0.55391 -0.0524,0.84561 0.23386,0.22388 0.495917,0.29235 0.673617,0.27114 0.21889,-0.0212 0.51273,-0.0226 0.68863,-0.32044 0.13472,-0.32044 0.25626,-0.5594 0.38918,-1.15851 -0.13472,-0.59158 -0.20208,-1.10921 0.0674,-1.25711 0.26945,-0.14789 0.47154,-0.12324 0.67363,0.0493 0.20209,0.17255 0.20209,0.24649 0.47153,0.54228 0.26945,0.29579 0.25246,0.48962 0.39099,0.90244 -0.0674,0.61623 0.0132,0.89695 0.0806,1.36528 0.0674,0.46833 -0.007,0.48201 0.13473,0.76412 0.12153,0.26705 0.29183,0.33068 0.87572,0.29579 0.33682,-0.14789 0.40417,-0.51763 0.5389,-0.83806 0.13472,-0.32045 0.13472,-0.2958 0.20209,-0.88738 0.0674,-0.59157 0.009,-0.82775 -0.12533,-1.02494 -0.0318,-0.2198 -0.15152,-0.4382 -0.0768,-0.52795 0.40418,0.0986 0.40418,0.27114 0.80835,0.61623 0.40418,0.34509 0.74099,0.64088 0.87572,1.03526 0.13472,0.39439 0.49413,0.53884 0.7242,0.97295 0.5389,0.41903 0.65683,0.52033 1.02722,0.53065 0.39099,-0.1027 0.57629,-0.19515 0.53891,-0.51763 -0.20209,-0.34509 -0.20209,-0.51764 -0.53891,-0.86272 -0.3368,-0.34509 -0.26944,-0.49298 -0.74098,-0.86272 -0.28624,-0.32454 -0.32161,-0.43476 -0.47154,-0.54228 0.67362,-0.0247 0.66423,0.0733 1.0778,0.24649 0.68123,0.47455 0.42297,0.37457 0.67363,0.51763 0.3742,0.28621 0.69422,0.39161 1.01045,0.34509 0.33681,-0.19719 0.47154,-0.24649 0.20208,-0.46834 -0.26945,-0.22184 -0.0674,-0.0739 -0.47153,-0.39438 -0.40419,-0.32044 -0.80836,-0.44368 -0.26946,-0.41904 0.53891,0.0246 0.60626,0 0.94308,0.1972 0.33682,0.19719 0,0.22184 0.74099,0.34509 0.741,0.12324 1.21254,0.34508 1.41462,0.17254 0.20209,-0.17254 0.26945,-0.1479 -0.20208,-0.39439 -0.47154,-0.24649 -0.94309,-0.32044 -0.74099,-0.44368 0.20208,-0.12325 0.74099,-0.1479 1.14516,-0.1479 0.40418,0 0.47154,-0.0247 0.26945,-0.27114 -0.20209,-0.24649 -0.26945,-0.24649 -0.33681,-0.36974 -0.0674,-0.12324 0.26945,-0.22184 0.26945,-0.22184 0,0 0.60626,0.1479 0.13472,-0.22184 -0.47153,-0.36973 -0.74098,-0.27114 -1.01044,-0.44368 -0.26945,-0.17255 -0.5389,-0.34509 -0.13473,-0.34509 0.40419,0 0.80836,0.0247 0.741,-0.0986 -0.0674,-0.12324 -0.67363,-0.24649 -0.33681,-0.32043 0.33681,-0.0739 0.60626,0.0246 0.87571,-0.0739 0.26945,-0.0986 0,-0.27114 0,-0.39439 0,-0.12324 -0.0674,-0.22184 0.0674,-0.34509 0.13473,-0.12324 0.40418,-0.24649 0.20209,-0.36973 -0.20209,-0.12325 0.0674,-0.1479 -0.47154,-0.27114 -0.53891,-0.12325 -0.87572,-0.0986 -0.87572,-0.22184 0,-0.12325 -0.0674,-0.0986 0.26945,-0.19719 0.33682,-0.0986 0.741,-0.0247 0.47154,-0.2465 -0.26944,-0.22184 -0.20209,-0.19719 -0.33681,-0.39439 -0.13473,-0.19719 0.0674,-0.0986 -0.5389,-0.56693 -0.60627,-0.46833 -1.21254,-0.81342 -1.8188,-0.93666 -0.60627,-0.12325 -0.47154,-0.39439 -0.0674,-0.44369 0.40418,-0.0493 0.47155,-0.27114 0.0674,-0.59158 -0.40418,-0.32044 -0.87572,-0.73948 -1.01045,-0.96132 -0.13472,-0.22184 -0.26945,-0.24649 -0.94307,-0.51763 -0.67363,-0.27114 -1.21253,-0.51763 -1.81879,-0.59158 -0.60627,-0.0739 -0.67363,-0.32044 -1.07781,-0.44369 -0.40417,-0.12324 -0.5389,-0.19719 -1.41462,-0.19719 -0.87572,0 -0.87572,0.0739 -1.75142,-0.0247 -0.87572,-0.0986 -1.2799,-0.19719 -1.34726,-0.34509 -0.0674,-0.14789 -0.33682,-0.22184 -0.875727,-0.17254 -0.5389,0.0493 -0.13473,-0.0986 -0.80835,-0.19719 -0.67363,-0.0986 -0.47154,-0.22184 -1.27989,-0.1972 -0.80836,0.0247 -1.21254,0.24649 -1.41462,0 -0.20209,-0.24649 -0.26945,-0.44368 -1.14517,-0.22184 -0.87572,0.22184 -1.34726,0.81342 -1.81879,0.1972 -0.47155,-0.61623 -0.47155,-0.76412 0.0674,-0.93667 0.5389,-0.17255 0.67363,-0.32044 1.88616,-0.49299 1.21252,-0.17254 1.21252,-0.36973 2.08824,-0.49298 0.87572,-0.12324 0.94308,-0.17254 2.29033,-0.41903 1.347267,-0.24649 1.684077,-0.32044 2.492427,-0.49298 0.80836,-0.17255 1.01045,-0.34509 1.21254,-0.51764 0.20209,-0.17254 1.07781,-0.36973 0.74099,-0.61622 -0.33682,-0.24649 -1.01044,-0.0986 -1.01044,-0.22184 0,-0.12325 0.13472,-0.22185 -0.13473,-0.46834 -0.26945,-0.24649 -0.20209,-0.34509 -1.14516,-0.44368 -0.94308,-0.0986 -1.48199,-0.1479 -1.953527,-0.0739 -0.47155,0.0739 -0.60627,-0.22184 -1.0778,-0.14789 -0.47155,0.0739 -0.67364,0.29578 -1.01045,0.17254 -0.33681,-0.12325 0.26945,-0.19719 -0.53891,-0.27114 -0.80835,-0.0739 -0.87571,0.12324 -0.94307,-0.0493 -0.0674,-0.17255 0.20208,-0.34509 -0.67363,-0.17255 -0.87572,0.17255 -0.60626,0.51764 -1.27989,0.27115 -0.67363,-0.2465 -0.33682,-0.54228 -1.54935,-0.29579 -1.212537,0.24649 -0.80836,0.27114 -1.751437,0.24649 -0.943076,-0.0246 -0.943076,-0.0493 -1.279893,0.22184 -0.336809,0.27114 0.336817,0.19719 -1.14516,0.22185 -1.481992,0.0247 -0.740992,-0.32045 -1.684076,0.14789 -0.943082,0.46833 -1.145167,0.93666 -1.549345,0.41903 -0.404177,-0.51763 0,-0.64088 -0.606268,-0.78877 -0.606261,-0.14789 -3.704953,-0.0986 -3.704953,-0.0986 0,0 -0.06737,-0.56692 -0.336817,-0.66552 -0.26945,-0.0986 -0.943077,0.0986 -1.549344,-0.0986 -0.606262,-0.19719 -0.202086,-0.32044 -0.740987,-0.49298 -0.538902,-0.17254 -1.616711,-0.19719 -1.616711,-0.19719 0,0 0.740993,0.22184 0.943084,0.41903 0.202085,0.1972 0.471536,0.54228 0.471536,0.54228 0,0 -1.077803,-0.14789 -1.549345,-0.17254 -0.471536,-0.0247 -1.212528,0.0246 -1.212528,0.0246 l 0.202085,-0.56693 c 0,0 -1.279888,0 -1.279888,0.19719 0,0.19719 0.404176,0.73947 0.740992,0.81342 0.336811,0.0739 0.808353,0.0493 0.808353,0.0493 0,0 -0.134726,0.24649 0.202085,0.29579 0.336816,0.0493 0.538901,0 1.077803,0 0.538907,0 2.963964,0.27114 2.963964,0.27114 0,0 -0.06736,0.64087 0.202091,0.91201 0.269451,0.27114 1.549345,1.03527 0.943077,1.15851 -0.606267,0.12325 -1.077802,0.0246 -1.414618,-0.0986 -0.336812,-0.12325 -0.943079,-0.49299 -2.222972,-0.59158 -1.279895,-0.0986 -2.290338,-0.1479 -2.290338,-0.1479 0,0 -0.269445,-0.0493 -0.269445,-0.24649 0,-0.19719 0.471536,-0.39439 -0.202091,-0.64087 -0.673627,-0.2465 -1.212528,-0.46834 -1.953521,-0.34509 -0.740993,0.12324 -0.875718,0.27114 -0.875718,0.27114 0,0 0.538902,-0.12325 1.41462,-0.0493 0.875718,0.0739 0.538901,0.69017 0.471542,0.81342 -0.06737,0.12324 -0.740993,0.24649 -1.14517,0.12324 -0.404176,-0.12324 -0.943077,-0.44368 -0.606267,-0.56693 0.336817,-0.12324 -0.943077,0.27115 -0.875712,0.44369 0.06736,0.17254 0.269451,0.29579 0.269451,0.29579 0,0 -0.875718,0 -1.414619,0.0247 -0.538908,0.0247 -0.943084,0.12324 -0.943084,-0.0247 0,-0.1479 0.269457,-0.81342 -0.33681,-0.39439 -0.606262,0.41904 -0.875712,0.51764 -0.269451,0.73948 z"
       id="path857"
       sodipodi:nodetypes="cccccccccccccccccccccccccccccccccccccccccccccccccccccccccccccccccccccccccccccccccccccccccccccccccccccccccccccccccccccccccccccccccccccccccccccccccccccccccccccccccccccccccccccccccccccccccccccccc"
       style="fill:#808080;fill-opacity:1;fill-rule:evenodd;stroke:#000000;stroke-width:0.26458331pt;stroke-linecap:butt;stroke-linejoin:miter;stroke-opacity:1" />
    <path
       style="fill:#000000;fill-opacity:1;fill-rule:evenodd;stroke:#000000;stroke-width:0.26458329pt;stroke-linecap:butt;stroke-linejoin:miter;stroke-opacity:1"
       sodipodi:nodetypes="cccccccccccccccccccccccccccccccccccccccccccccccccccccccccccccccccccccccccccccccccccccccccccccccccccccccccccccccccccccccccccccccccccccccccccccccccccccccccccccccccccccccccccccccccccccccccccccccc"
       id="path10416"
       d="m 76.790588,215.20858 c 0.198449,-0.16567 0.496125,-0.39762 0.893025,-0.36449 0.3969,0.0331 1.289927,0.0994 1.620676,0.0331 0.33075,-0.0663 0.595349,0.0331 0.694572,-0.23195 0.09922,-0.2651 0.132294,-1.12665 0.396901,-1.45802 0.2646,-0.33136 0.992248,-0.69587 1.091475,-1.02724 0.09921,-0.33137 0.132293,-0.46392 0,-0.79528 -0.132294,-0.33137 -0.429975,-0.62961 -0.859951,-0.82844 -0.429971,-0.19883 -0.826874,-0.33135 -0.826874,-0.33135 0,0 -0.859949,0.79528 -0.893026,0.9941 -0.03308,0.19883 0.06616,0.39765 -0.132293,0.49705 -0.198451,0.0994 -0.529199,-0.19883 -0.595348,-0.729 -0.06616,-0.5302 0.165376,-1.1598 0.132293,-1.5243 -0.03308,-0.36451 -0.264599,-0.69589 -0.06616,-1.06039 0.198448,-0.3645 0.661498,-0.92782 1.025324,-1.19292 0.363826,-0.2651 0.992251,-0.29825 1.091473,-0.6296 0.09923,-0.33138 -0.628424,-1.59059 -0.628424,-1.88882 0,-0.29823 0.09924,-0.86155 -0.132306,-1.32547 -0.231523,-0.46393 -0.496123,-1.45803 -1.488374,-2.08764 -0.992248,-0.6296 -1.686825,-0.89467 -1.8522,-1.3586 -0.165376,-0.46392 -0.03308,-0.46392 0.165375,-0.59647 0.198451,-0.13253 -0.5292,-0.89469 -0.760723,-1.6237 -0.231525,-0.72901 -0.628425,-2.18703 -0.463049,-2.31958 0.165374,-0.13253 0.661499,0 0.760723,0.26509 0.09924,0.2651 0.496124,1.8888 0.496124,1.8888 0,0 -0.09921,-1.22607 0.06616,-1.59057 0.165376,-0.3645 0.363826,-0.729 0.562274,-0.6296 0.19845,0.0994 0.09921,2.25332 0.09921,2.25332 0,0 0.198453,-0.49707 0.330753,-0.7953 0.132294,-0.29822 0.231523,-0.56332 0.396901,-0.39765 0.165372,0.1657 0.03308,1.75626 0.03308,1.75626 0,0 0.264604,-0.39763 0.463052,-0.49703 0.19845,-0.0994 0.297673,-0.1657 0.429974,0.0663 0.132307,0.23196 0.09922,0.5302 0.09922,0.5302 0,0 0.09921,-0.33138 0.33075,-0.33138 0.231525,0 0.529198,0.0994 0.429974,0.36452 -0.09923,0.26508 0.893025,0.0331 0.826875,0.49704 -0.06616,0.46393 0,0.8947 0.264601,0.8947 0.264598,0 0.429975,0.3645 0.959174,0.23195 0.330748,0.19883 -0.165376,1.4249 0.06616,1.2592 0.231525,-0.16567 0.760726,-0.29822 0.959176,0.0663 0.19845,0.3645 -0.264601,0.79528 0,1.12666 0.264599,0.33135 0,0.6296 0.396897,0.89469 0.396901,0.26508 0.429978,0.0663 0.529201,0.66273 0.09924,0.59647 0.09924,0.86157 0.2646,1.09352 0.165377,0.23196 0.363827,0.39765 0.330753,0.8947 -0.03308,0.49707 -0.330753,0.96098 0.06616,0.8947 0.396899,-0.0663 0.562272,-0.46392 0.859949,-0.62959 0.297677,-0.16569 0.363827,-0.19883 0.760727,-0.49706 0.396898,-0.29825 0.463048,-0.69588 0.694574,-0.7953 0.231522,-0.0994 0.429972,-0.0663 0.760724,-0.19881 0.330747,-0.13253 0.6615,-0.43079 0.826878,-0.56333 0.165373,-0.13254 0.165373,-0.19883 0.463049,-0.46393 0.297673,-0.26508 0.595345,-0.43077 0.793797,-0.86155 0.198446,-0.43077 0.165378,-0.46392 0.396902,-1.09352 0.231525,-0.6296 0.165373,-0.82842 0.297673,-1.09351 0.132307,-0.2651 0.132307,-0.49705 0.363829,-0.72901 0.231521,-0.23196 0.429972,-0.49706 0.463046,-0.2651 0.03309,0.23196 0.03309,0.56332 0.03309,0.76215 0,0.19882 0.297677,-0.29824 0.562276,-0.79529 0.264598,-0.49705 0.132293,-0.56332 0.231525,-0.9941 0.09924,-0.43079 0,-0.72902 0.03309,-1.22607 0.03309,-0.49705 0.09922,-0.53019 0.132292,-1.25919 0.03309,-0.72902 0.09186,-0.85144 0.09186,-1.38163 0,-0.53019 -0.0192,-0.74465 -0.02573,-1.13678 0.11482,-0.30099 0.243494,-0.39302 0.330744,-0.36451 0.107468,0.0286 0.251744,0.0303 0.338111,0.43077 0.06616,0.43079 0.125818,0.75203 0.191087,1.55745 -0.06616,0.79528 -0.09921,1.49115 0.03309,1.68998 0.132294,0.19882 0.231525,0.16568 0.330751,-0.0663 0.09924,-0.23195 0.09924,-0.33135 0.231521,-0.729 0.132293,-0.39765 0.123955,-0.65822 0.191974,-1.21319 -0.03309,-0.82842 0.0065,-1.2058 0.03959,-1.8354 0.03309,-0.62961 -0.0035,-0.64799 0.06616,-1.02724 0.05966,-0.359 0.143288,-0.44456 0.429976,-0.39765 0.165378,0.19882 0.198448,0.69587 0.264599,1.12664 0.06616,0.4308 0.06616,0.39766 0.09924,1.19294 0.03309,0.79529 0.0044,1.11279 -0.06154,1.37788 -0.01561,0.29547 -0.0744,0.58909 -0.03771,0.70974 0.198451,-0.13254 0.198451,-0.3645 0.396897,-0.82842 0.198453,-0.46391 0.363825,-0.86156 0.429977,-1.39175 0.06616,-0.53018 0.242616,-0.72438 0.35558,-1.30796 0.264599,-0.56333 0.322503,-0.69952 0.504362,-0.71339 0.191975,0.13805 0.282957,0.26235 0.264605,0.69588 -0.09922,0.46391 -0.09922,0.69588 -0.264605,1.15978 -0.165368,0.46393 -0.132292,0.66275 -0.363819,1.1598 -0.140543,0.43629 -0.15791,0.58446 -0.231524,0.72902 0.330745,0.0331 0.326135,-0.0985 0.529196,-0.33138 0.334483,-0.63795 0.207678,-0.50355 0.330752,-0.69587 0.183732,-0.38477 0.34086,-0.52645 0.49613,-0.46392 0.165372,0.2651 0.231523,0.33138 0.09921,0.6296 -0.132293,0.29824 -0.03309,0.0994 -0.231521,0.53019 -0.198457,0.43078 -0.396902,0.59647 -0.132307,0.56333 0.264605,-0.0331 0.297673,0 0.46305,-0.26511 0.165378,-0.26508 0,-0.29822 0.363825,-0.46391 0.363829,-0.16567 0.595355,-0.46391 0.694576,-0.23195 0.09924,0.23195 0.132293,0.19882 -0.09921,0.53019 -0.231525,0.33137 -0.463055,0.43078 -0.363824,0.59646 0.09921,0.16569 0.363824,0.19882 0.562271,0.19882 0.198451,0 0.231524,0.0331 0.132294,0.36452 -0.09922,0.33135 -0.132294,0.33135 -0.165373,0.49705 -0.03309,0.16567 0.132293,0.29822 0.132293,0.29822 0,0 0.297672,-0.19882 0.06616,0.29824 -0.231522,0.49705 -0.36382,0.3645 -0.496125,0.59646 -0.132294,0.23197 -0.264598,0.46392 -0.06616,0.46392 0.198457,0 0.396905,-0.0331 0.363831,0.13254 -0.03309,0.16568 -0.330752,0.33138 -0.165374,0.43078 0.165374,0.0994 0.297673,-0.0331 0.429971,0.0994 0.132308,0.13254 0,0.3645 0,0.53019 0,0.16569 -0.03309,0.29824 0.03309,0.46391 0.06616,0.16569 0.198453,0.33137 0.09924,0.49706 -0.09924,0.16568 0.03309,0.19883 -0.231526,0.3645 -0.264603,0.16569 -0.429976,0.13254 -0.429976,0.29823 0,0.1657 -0.03309,0.13254 0.132294,0.2651 0.165378,0.13254 0.363829,0.0331 0.231525,0.33137 -0.132294,0.29823 -0.09922,0.2651 -0.165373,0.5302 -0.06616,0.26508 0.03309,0.13252 -0.264598,0.76214 -0.297678,0.6296 -0.595355,1.09351 -0.893027,1.2592 -0.297678,0.16569 -0.231525,0.5302 -0.03309,0.59648 0.198451,0.0662 0.231529,0.3645 0.03309,0.79527 -0.198451,0.43078 -0.429976,0.99412 -0.496129,1.29236 -0.06613,0.29822 -0.132293,0.33136 -0.463045,0.69587 -0.330752,0.3645 -0.595349,0.69586 -0.893021,0.79528 -0.297678,0.0994 -0.330752,0.43078 -0.529203,0.59646 -0.198447,0.16569 -0.264599,0.2651 -0.694576,0.2651 -0.429976,0 -0.429976,-0.0994 -0.859943,0.0331 -0.429976,0.13254 -0.628427,0.2651 -0.661501,0.46393 -0.03309,0.19882 -0.165374,0.29822 -0.429976,0.23195 -0.264598,-0.0663 -0.06616,0.13254 -0.396897,0.2651 -0.330751,0.13254 -0.231525,0.29823 -0.628423,0.2651 -0.396904,-0.0331 -0.595355,-0.33138 -0.694576,0 -0.09922,0.33136 -0.132293,0.59646 -0.562275,0.29822 -0.429977,-0.29822 -0.661502,-1.09351 -0.893022,-0.26509 -0.231531,0.82843 -0.231531,1.02725 0.03309,1.2592 0.264598,0.23195 0.330749,0.43078 0.9261,0.66275 0.595343,0.23195 0.595343,0.49705 1.025321,0.66273 0.429976,0.16569 0.463049,0.23196 1.124547,0.56332 0.6615,0.33137 0.826872,0.43079 1.22377,0.66274 0.396904,0.23196 0.496129,0.46392 0.595355,0.69587 0.09924,0.23198 0.529203,0.49705 0.363825,0.82843 -0.165378,0.33137 -0.496124,0.13254 -0.496124,0.29822 0,0.1657 0.06616,0.29825 -0.06616,0.62961 -0.132292,0.33137 -0.09924,0.46392 -0.56227,0.59646 -0.463051,0.13253 -0.727649,0.19883 -0.959173,0.0994 -0.231531,-0.0994 -0.297678,0.29822 -0.529197,0.19882 -0.23153,-0.0994 -0.330756,-0.39765 -0.496128,-0.23196 -0.165374,0.16569 0.132292,0.26509 -0.264604,0.36451 -0.396898,0.0994 -0.429972,-0.1657 -0.463046,0.0663 -0.03309,0.23197 0.09921,0.46392 -0.330751,0.23197 -0.429976,-0.23197 -0.297671,-0.69588 -0.628423,-0.36452 -0.33075,0.33137 -0.165377,0.72902 -0.760726,0.39764 -0.595354,-0.33137 -0.396905,-0.3645 -0.859952,-0.33137 -0.463049,0.0331 -0.463049,0.0663 -0.628425,-0.29823 -0.165373,-0.3645 0.165376,-0.26509 -0.562272,-0.29822 -0.727653,-0.0331 -0.363825,0.43077 -0.826877,-0.19883 -0.46305,-0.6296 -0.562275,-1.25919 -0.760726,-0.56332 -0.198449,0.69587 0,0.86155 -0.297675,1.06037 -0.297673,0.19883 -1.819124,0.13254 -1.819124,0.13254 0,0 -0.03308,0.76215 -0.165376,0.8947 -0.132294,0.13252 -0.463049,-0.13254 -0.760724,0.13252 -0.297673,0.2651 -0.09922,0.43079 -0.363824,0.66275 -0.264599,0.23196 -0.793801,0.26509 -0.793801,0.26509 0,0 0.363826,-0.29823 0.463052,-0.56333 0.09921,-0.26509 0.231524,-0.72901 0.231524,-0.72901 0,0 -0.5292,0.19882 -0.760725,0.23196 -0.231524,0.0331 -0.595349,-0.0331 -0.595349,-0.0331 l 0.09921,0.76215 c 0,0 -0.628422,0 -0.628422,-0.26508 0,-0.2651 0.19845,-0.9941 0.363826,-1.09352 0.165373,-0.0994 0.396899,-0.0663 0.396899,-0.0663 0,0 -0.06616,-0.33136 0.09921,-0.39764 0.165376,-0.0663 0.264599,0 0.529198,0 0.264602,0 1.4553,-0.36451 1.4553,-0.36451 0,0 -0.03308,-0.86155 0.09924,-1.22606 0.132307,-0.36451 0.760725,-1.39176 0.46305,-1.55743 -0.297677,-0.16568 -0.529199,-0.0331 -0.694575,0.13254 -0.165375,0.16568 -0.463051,0.66273 -1.091474,0.79528 -0.628426,0.13254 -1.124551,0.19882 -1.124551,0.19882 0,0 -0.132294,0.0663 -0.132294,0.33138 0,0.2651 0.231524,0.5302 -0.09924,0.86156 -0.330748,0.33136 -0.595348,0.6296 -0.959174,0.46391 -0.363826,-0.16569 -0.429976,-0.3645 -0.429976,-0.3645 0,0 0.264601,0.16568 0.694575,0.0663 0.429976,-0.0994 0.2646,-0.92783 0.231526,-1.09351 -0.03308,-0.16568 -0.363825,-0.33137 -0.562275,-0.16568 -0.19845,0.16568 -0.46305,0.59646 -0.297676,0.76215 0.165377,0.16567 -0.463048,-0.36452 -0.429973,-0.59647 0.03308,-0.23196 0.132308,-0.39765 0.132308,-0.39765 0,0 -0.429977,0 -0.694575,-0.0331 -0.264604,-0.0331 -0.463053,-0.16569 -0.463053,0.0331 0,0.19883 0.132307,1.09353 -0.165373,0.53019 -0.297673,-0.56331 -0.429972,-0.69586 -0.132293,-0.99411 z"
       inkscape:connector-curvature="0" />
  </g>
</svg>
