<?xml version="1.0" encoding="UTF-8" standalone="no"?>
<!-- Created with Inkscape (http://www.inkscape.org/) -->

<svg
   xmlns:dc="http://purl.org/dc/elements/1.1/"
   xmlns:cc="http://creativecommons.org/ns#"
   xmlns:rdf="http://www.w3.org/1999/02/22-rdf-syntax-ns#"
   xmlns:svg="http://www.w3.org/2000/svg"
   xmlns="http://www.w3.org/2000/svg"
   xmlns:sodipodi="http://sodipodi.sourceforge.net/DTD/sodipodi-0.dtd"
   xmlns:inkscape="http://www.inkscape.org/namespaces/inkscape"
   width="1431.5886"
   height="280.59842"
   viewBox="0 0 404.02613 79.191108"
   version="1.1"
   id="svg8"
   inkscape:version="0.48.4 r9939"
   sodipodi:docname="logo.svg"
   inkscape:export-filename="/home/ruben/Documents/Work/Repositories/ProjectEagle/doc/logo/logo.png"
   inkscape:export-xdpi="1000"
   inkscape:export-ydpi="1000">
  <defs
     id="defs2">
    <linearGradient
       id="linearGradient11775">
      <stop
         style="stop-color:#000;stop-opacity:1;"
         offset="0"
         id="stop11776" />
      <stop
         style="stop-color:#fff;stop-opacity:1;"
         offset="1"
         id="stop11777" />
    </linearGradient>
    <marker
       style="overflow:visible"
       refY="0"
       refX="0"
       orient="auto"
       inkscape:stockid="Club"
       id="Club">
      <path
         transform="scale(0.6,0.6)"
         style="fill-rule:evenodd;stroke:#000000;stroke-width:0.74587908pt;marker-start:none"
         id="path1015"
         d="m -1.5971367,-7.0977635 c -1.8892507,0 -3.426382,1.5371314 -3.426382,3.4263822 0,0.6566798 0.2383531,1.2269257 0.5594092,1.7481542 -0.038751,0.032111 -0.079672,0.058463 -0.1165436,0.093235 -0.6224234,-0.8549928 -1.5893983,-1.4451409 -2.7271199,-1.4451409 -1.8892515,-1e-7 -3.426382,1.5371314 -3.426382,3.42638214 0,1.88925076 1.5371305,3.42638216 3.426382,3.42638216 0.9934462,0 1.868619,-0.4420611 2.4940326,-1.1188187 -0.124687,0.3548915 -0.2097783,0.7214874 -0.2097783,1.1188187 0,1.8892506 1.5371313,3.4263822 3.426382,3.4263822 1.88925064,0 3.4263821,-1.5371316 3.4263821,-3.4263822 0,-0.7933959 -0.3155586,-1.4938285 -0.7691878,-2.0744763 C 2.4152718,1.7663868 3.7718375,2.2973711 4.7661444,3.8340272 4.0279463,3.0958289 3.5540908,1.7534117 3.5540908,-0.05852936 l -0.6293354,-0.04661745 0.5827179,-0.0233087 c 0,-1.81194109 0.4505466,-3.15435829 1.188745,-3.89255659 -0.9590906,1.4822308 -2.2571634,2.0263625 -3.5662345,2.3075635 0.4041964,-0.5619092 0.6992616,-1.213407 0.6992616,-1.9579327 0,-1.8892506 -1.53713146,-3.4263822 -3.4263821,-3.4263822 z"
         inkscape:connector-curvature="0" />
    </marker>
    <marker
       style="overflow:visible"
       refY="0"
       refX="0"
       orient="auto"
       inkscape:stockid="SemiCircleIn"
       id="SemiCircleIn">
      <path
         transform="scale(0.6,0.6)"
         style="fill-rule:evenodd;stroke:#000000;stroke-width:1pt;marker-start:none;marker-end:none"
         sodipodi:nodetypes="cccc"
         id="path941"
         d="m -0.37450702,-0.04569258 c 0,2.75999998 2.24000002,4.99999998 5.00000002,4.99999998 v -10 c -2.76,0 -5.00000002,2.24 -5.00000002,5.00000002 z"
         inkscape:connector-curvature="0" />
    </marker>
    <marker
       style="overflow:visible"
       refY="0"
       refX="0"
       orient="auto"
       inkscape:stockid="Dot_s"
       id="Dot_s">
      <path
         transform="matrix(0.2,0,0,0.2,1.4250986,0.2)"
         style="fill-rule:evenodd;stroke:#000000;stroke-width:1pt;marker-start:none;marker-end:none"
         id="path933"
         d="m -2.5,-1 c 0,2.76 -2.24,5 -5,5 -2.76,0 -5,-2.24 -5,-5 0,-2.76 2.24,-5 5,-5 2.76,0 5,2.24 5,5 z"
         inkscape:connector-curvature="0" />
    </marker>
  </defs>
  <sodipodi:namedview
     id="base"
     pagecolor="#ffffff"
     bordercolor="#666666"
     borderopacity="1.0"
     inkscape:pageopacity="0.0"
     inkscape:pageshadow="2"
     inkscape:zoom="3.1931624"
     inkscape:cx="215.28717"
     inkscape:cy="48.137006"
     inkscape:document-units="mm"
     inkscape:current-layer="layer1"
     showgrid="false"
     inkscape:window-width="1853"
     inkscape:window-height="1056"
     inkscape:window-x="67"
     inkscape:window-y="24"
     inkscape:window-maximized="1"
     inkscape:snap-nodes="true"
     inkscape:snap-global="false"
     inkscape:snap-object-midpoints="false"
     inkscape:snap-bbox="true"
     inkscape:snap-grids="true"
     inkscape:snap-to-guides="true"
     inkscape:snap-smooth-nodes="true"
     showguides="true"
     inkscape:guide-bbox="true"
     inkscape:snap-others="false"
     fit-margin-top="0"
     fit-margin-left="0"
     fit-margin-right="0"
     fit-margin-bottom="0"
     units="mm">
    <sodipodi:guide
       position="-109.03625,19.19294"
       orientation="1,0"
       id="guide861"
       inkscape:locked="false" />
  </sodipodi:namedview>
  <metadata
     id="metadata5">
    <rdf:RDF>
      <cc:Work
         rdf:about="">
        <dc:format>image/svg+xml</dc:format>
        <dc:type
           rdf:resource="http://purl.org/dc/dcmitype/StillImage" />
        <dc:title></dc:title>
      </cc:Work>
    </rdf:RDF>
  </metadata>
  <g
     inkscape:label="Layer 1"
     inkscape:groupmode="layer"
     id="layer1"
     transform="translate(-48.028178,-172.73247)">
    <text
       xml:space="preserve"
       style="font-size:60.31292725px;font-style:normal;font-variant:normal;font-weight:normal;font-stretch:normal;line-height:125%;letter-spacing:0px;word-spacing:0px;fill:#7fad9a;fill-opacity:1;stroke:none;font-family:Bree Serif;-inkscape-font-specification:Bree Serif"
       x="131.1118"
       y="237.2282"
       id="text3863"
       sodipodi:linespacing="125%"><tspan
         sodipodi:role="line"
         id="tspan3865"
         x="131.1118"
         y="237.2282"
         style="font-style:normal;font-variant:normal;font-weight:normal;font-stretch:normal;fill:#7fad9a;fill-opacity:1;font-family:Contrail One;-inkscape-font-specification:Contrail One">Project Eagle</tspan></text>
    <path
       style="fill:#7fad9a;fill-opacity:1;fill-rule:nonzero;stroke:none"
       d="M 139.96875 160.09375 C 62.673541 160.09375 0 180.50757 0 205.65625 C 0 230.80493 62.673541 251.1875 139.96875 251.1875 C 217.26396 251.1875 279.90625 230.80493 279.90625 205.65625 C 279.90625 180.50757 217.26396 160.09375 139.96875 160.09375 z M 102.5625 162.875 C 102.5625 162.875 106.403 162.95114 108.3125 163.5625 C 110.22199 164.17386 108.78933 164.6138 110.9375 165.3125 C 113.08569 166.01124 115.45151 165.30688 116.40625 165.65625 C 117.36098 166.00562 117.625 168.03125 117.625 168.03125 C 117.625 168.03125 128.60183 167.85098 130.75 168.375 C 132.89819 168.89902 131.44288 169.32213 132.875 171.15625 C 134.30713 172.99037 135.03337 171.34694 138.375 169.6875 C 141.71664 168.02803 139.0926 169.24377 144.34375 169.15625 C 149.59485 169.06887 147.21283 169.33573 148.40625 168.375 C 149.5997 167.41427 149.59589 167.50658 152.9375 167.59375 C 156.27911 167.68109 154.85986 167.59214 159.15625 166.71875 C 163.45262 165.84536 162.23812 166.87657 164.625 167.75 C 167.01188 168.62339 166.05331 167.39265 169.15625 166.78125 C 172.25916 166.16989 171.32368 166.79485 171.5625 167.40625 C 171.80118 168.01761 172.04202 167.3319 174.90625 167.59375 C 177.77052 167.85578 175.61908 168.09454 176.8125 168.53125 C 178.00592 168.96793 178.70415 168.19935 180.375 167.9375 C 182.04578 167.67547 182.54791 168.7306 184.21875 168.46875 C 185.88956 168.20655 187.78338 168.36938 191.125 168.71875 C 194.46659 169.06808 194.23276 169.40786 195.1875 170.28125 C 196.14224 171.15464 195.65625 171.50079 195.65625 171.9375 C 195.65625 172.37418 198.05654 171.84536 199.25 172.71875 C 200.44346 173.59214 197.34107 174.29489 196.625 174.90625 C 195.90893 175.51765 195.17677 176.1386 192.3125 176.75 C 189.44827 177.36136 188.27379 177.62661 183.5 178.5 C 178.72628 179.37339 178.47794 179.53207 175.375 179.96875 C 172.27206 180.40546 172.26508 181.10739 167.96875 181.71875 C 163.67238 182.33015 163.19074 182.85735 161.28125 183.46875 C 159.37158 184.08015 159.39165 184.59776 161.0625 186.78125 C 162.73328 188.96471 164.39706 186.8798 167.5 186.09375 C 170.60294 185.3077 170.84643 186.00161 171.5625 186.875 C 172.27853 187.74839 173.69823 186.96252 176.5625 186.875 C 179.42673 186.78769 178.70687 187.24438 181.09375 187.59375 C 183.48059 187.94308 182.05926 188.45594 183.96875 188.28125 C 185.87827 188.10656 186.82368 188.38223 187.0625 188.90625 C 187.30118 189.43031 188.74081 189.77563 191.84375 190.125 C 194.94662 190.47437 194.95956 190.1875 198.0625 190.1875 C 201.16544 190.1875 201.6304 190.46957 203.0625 190.90625 C 204.49463 191.34296 204.7268 192.2069 206.875 192.46875 C 209.02317 192.73078 210.92562 193.60177 213.3125 194.5625 C 215.69934 195.52323 216.1789 195.6202 216.65625 196.40625 C 217.13364 197.1923 218.81787 198.67708 220.25 199.8125 C 221.68203 200.94792 221.43213 201.73156 220 201.90625 C 218.56801 202.08094 218.1018 203.03204 220.25 203.46875 C 222.39817 203.90543 224.5393 205.12181 226.6875 206.78125 C 228.83581 208.44069 228.11636 208.1138 228.59375 208.8125 C 229.0711 209.51124 228.82654 209.40145 229.78125 210.1875 C 230.73603 210.97341 229.31846 210.71313 228.125 211.0625 C 226.93144 211.41183 227.15625 211.34454 227.15625 211.78125 C 227.15625 212.21793 228.37173 212.12579 230.28125 212.5625 C 232.19088 212.99918 231.22143 213.09454 231.9375 213.53125 C 232.65357 213.96793 231.69614 214.40707 231.21875 214.84375 C 230.74111 215.28046 231 215.62582 231 216.0625 C 231 216.49921 231.95474 217.08813 231 217.4375 C 230.04526 217.78652 229.06842 217.4569 227.875 217.71875 C 226.68154 217.98074 228.82368 218.40707 229.0625 218.84375 C 229.30118 219.28064 227.86967 219.1875 226.4375 219.1875 C 225.0054 219.1875 225.98276 219.79485 226.9375 220.40625 C 227.89228 221.01761 228.82922 220.68993 230.5 222 C 232.17081 223.3101 230.03125 222.78125 230.03125 222.78125 C 230.03125 222.78125 228.82368 223.12582 229.0625 223.5625 C 229.30118 223.99921 229.56518 224.00161 230.28125 224.875 C 230.99732 225.74821 230.74463 225.84375 229.3125 225.84375 C 227.8804 225.84375 225.96603 225.93829 225.25 226.375 C 224.5339 226.81168 226.20419 227.06411 227.875 227.9375 C 229.54578 228.81089 229.30982 228.73239 228.59375 229.34375 C 227.87772 229.95511 226.21934 229.15543 223.59375 228.71875 C 220.96819 228.28204 222.16221 228.1987 220.96875 227.5 C 219.77529 226.80126 219.53452 226.86842 217.625 226.78125 C 215.71551 226.69394 217.13033 227.14583 218.5625 228.28125 C 219.99446 229.41681 219.29526 228.90145 220.25 229.6875 C 221.20478 230.47358 220.72467 230.64505 219.53125 231.34375 C 218.41075 231.50858 217.26341 231.13913 215.9375 230.125 C 215.04933 229.61809 215.97631 229.96273 213.5625 228.28125 C 212.09709 227.66758 212.13684 227.31873 209.75 227.40625 C 210.28125 227.78723 210.39201 228.19381 211.40625 229.34375 C 213.07706 230.65385 212.83786 231.15224 214.03125 232.375 C 215.22471 233.59772 215.22143 234.21474 215.9375 235.4375 C 216.06995 236.58015 215.41665 236.91735 214.03125 237.28125 C 212.71884 237.24468 212.31574 236.891 210.40625 235.40625 C 209.59104 233.86806 208.3211 233.33494 207.84375 231.9375 C 207.36636 230.54009 206.15088 229.50401 204.71875 228.28125 C 203.28665 227.05849 203.30713 226.44312 201.875 226.09375 C 201.61024 226.41176 202.01232 227.18993 202.125 227.96875 C 202.60097 228.66745 202.83257 229.49764 202.59375 231.59375 C 202.35504 233.6899 202.35235 233.61455 201.875 234.75 C 201.39761 235.88538 201.16221 237.19473 199.96875 237.71875 C 197.89985 237.84238 197.27437 237.60249 196.84375 236.65625 C 196.34156 235.65665 196.61382 235.62819 196.375 233.96875 C 196.13618 232.30931 195.85493 231.30849 196.09375 229.125 C 195.6029 227.66225 195.67349 226.98557 194.71875 225.9375 C 193.76404 224.88943 193.74732 224.6114 193.03125 224 C 192.31518 223.38864 191.61099 223.28848 190.65625 223.8125 C 189.7014 224.33656 189.9289 226.1851 190.40625 228.28125 C 189.93527 230.40408 189.5086 231.23958 189.03125 232.375 C 188.40798 233.43034 187.36934 233.45613 186.59375 233.53125 C 185.9641 233.6064 185.04739 233.35578 184.21875 232.5625 C 184.26588 231.52892 184.375 230.95994 184.375 229.5625 C 184.375 228.16509 183.95757 227.85896 183.71875 225.9375 C 183.48011 224.01604 183.02007 223.90382 182.78125 222.59375 C 182.54243 221.28365 183.24732 220.51042 182.53125 219.375 C 181.81518 218.23958 182.78449 218.0601 180.875 216.75 C 178.96551 215.43993 176.8125 214.13219 176.8125 214.65625 C 176.8125 215.18027 176.80132 216.04485 176.5625 216.65625 C 176.32382 217.26761 174.88953 216.58015 173.21875 215.96875 C 171.54794 215.35739 171.54853 214.72995 170.59375 214.03125 C 169.63901 213.33255 170.10831 212.81569 168.4375 211.15625 C 166.76669 209.49681 167.02585 209.41667 165.59375 208.28125 C 164.16162 207.14583 161.99192 206.6987 159.84375 206 C 157.69555 205.3013 157.72467 205.13062 156.53125 204.78125 C 155.3378 204.43192 152.94936 203.66187 150.5625 203.3125 C 148.17561 202.96313 146.73329 203.0431 145.0625 202.78125 C 143.39168 202.51926 142.92674 201.47355 140.0625 200.6875 C 137.19826 199.90145 136.71069 199.81171 134.5625 199.375 C 132.4143 198.93829 131.20799 197.89344 128.34375 197.71875 C 125.47949 197.54406 127.63629 198.75236 127.875 200.0625 C 128.11368 201.3726 126.69345 201.8261 125.5 202.4375 C 124.30657 203.04886 124.27857 203.74037 123.5625 205.3125 C 122.84645 206.88459 122.61424 206.3638 119.75 207.0625 C 116.88576 207.76124 118.81575 208.53286 116.90625 209.40625 C 114.99675 210.27964 118.33837 211.41427 116.90625 212.375 C 115.47413 213.33573 111.63955 212.99918 109.96875 212.5625 C 108.29794 212.12579 111.88687 215.35094 109.5 215.875 C 105.68101 215.52563 104.47199 216.5 102.5625 216.5 C 100.653 216.5 100.17887 217.62103 100.65625 218.84375 C 101.13362 220.06633 93.97143 219.45755 94.6875 220.15625 C 95.403549 220.85513 93.264565 221.125 91.59375 221.125 C 89.922932 221.125 89.21875 220.25 89.21875 220.25 C 89.21875 220.25 89.454769 221.04489 88.5 221.65625 C 87.545252 222.26765 86.80712 222.07435 85.375 221.8125 C 83.94288 221.55047 82.03125 220.5 82.03125 220.5 C 82.03125 220.5 83.005921 224.68832 81.8125 225.125 C 80.619054 225.56168 79.892248 224.8798 78.9375 224.09375 C 77.982752 223.3077 76.5625 222 76.5625 222 C 76.5625 222 77.27587 227.67565 75.84375 227.9375 C 74.41163 228.19953 72.974692 227.24198 71.78125 226.28125 C 70.587825 225.32052 71.3125 222.09375 71.3125 222.09375 C 71.3125 222.09375 68.43482 226.3638 67.71875 227.0625 C 67.002701 227.7612 63.443421 228.09937 62.25 227.75 C 61.056554 227.40067 63.891682 223.57771 65.5625 221.65625 C 67.233293 219.73479 72.494637 217.72437 71.0625 217.375 C 69.630363 217.02563 68.681554 217.00401 69.875 215.78125 C 71.068425 214.55853 76.089398 213.87822 83.25 212.21875 C 90.410623 210.55931 92.297953 207.94151 93.96875 206.71875 C 95.639568 205.49603 94.9375 204.0048 94.9375 203.21875 C 94.9375 202.4327 100.18482 199.12339 99.46875 198.25 C 98.752704 197.37661 94.219312 197.2612 91.59375 196.5625 C 88.968184 195.86376 85.61962 194.39823 84.1875 193.4375 C 82.75538 192.47677 84.448787 191.58577 84.6875 190.625 C 84.926198 189.66427 83.241378 188.02241 83.71875 186.625 C 84.196122 185.22756 86.56788 184.42565 88 184.6875 C 89.432137 184.94949 88.730073 185.47594 88.96875 186 C 89.207448 186.52402 95.40625 188.625 95.40625 188.625 C 95.40625 188.625 98.272084 188.27406 101.375 187.75 C 104.47794 187.22598 106.639 186.43589 107.59375 185.5625 C 108.5485 184.68911 108.3098 184.34214 107.59375 183.46875 C 106.87768 182.59536 101.62824 181.65464 99.71875 180.78125 C 97.809237 179.90786 97.55982 177.63624 96.84375 176.9375 C 96.127701 176.23897 94.230617 176.48719 91.84375 176.3125 C 89.456883 176.13817 82.989239 176.31873 80.125 176.40625 C 77.260757 176.49359 75.11962 175.87421 73.6875 175.4375 C 71.539331 174.65145 72.508078 174.29729 74.65625 172.8125 C 76.80444 171.32775 75.84375 173.69469 75.84375 174.21875 C 75.84375 174.74295 77.277983 174.40002 79.1875 174.3125 C 81.096992 174.22498 84.1875 174.21875 84.1875 174.21875 C 84.1875 174.21875 83.488677 173.76761 83.25 173.15625 C 83.011305 172.54489 87.537196 171.15707 86.34375 171.59375 C 85.150329 172.03046 87.06788 173.15707 88.5 173.59375 C 89.932123 174.03046 92.323787 173.59293 92.5625 173.15625 C 92.801174 172.71954 93.977938 170.5431 90.875 170.28125 C 87.772062 170.01922 85.875 170.46875 85.875 170.46875 C 85.875 170.46875 86.343184 169.93668 88.96875 169.5 C 91.594316 169.06329 93.519383 169.84532 95.90625 170.71875 C 98.293117 171.5921 96.59375 172.3013 96.59375 173 C 96.59375 173.6987 97.5625 173.875 97.5625 173.875 C 97.5625 173.875 101.15244 174.05688 105.6875 174.40625 C 110.22255 174.75558 112.36907 176.06329 113.5625 176.5 C 114.75594 176.93654 116.41431 177.28046 118.5625 176.84375 C 120.71069 176.40707 116.1735 173.67948 115.21875 172.71875 C 114.264 171.75802 114.5 169.5 114.5 169.5 C 114.5 169.5 105.90951 168.53125 104 168.53125 C 102.0905 168.53125 101.38094 168.70594 100.1875 168.53125 C 98.994075 168.35656 99.46875 167.5 99.46875 167.5 C 99.46875 167.5 97.787175 167.57435 96.59375 167.3125 C 95.400308 167.05047 93.96875 165.1362 93.96875 164.4375 C 93.96875 163.7388 98.53125 163.75 98.53125 163.75 L 97.8125 165.75 C 97.8125 165.75 100.42295 165.56873 102.09375 165.65625 C 103.76457 165.74359 107.59375 166.28125 107.59375 166.28125 C 107.59375 166.28125 106.6223 165.04249 105.90625 164.34375 C 105.19018 163.64505 102.5625 162.875 102.5625 162.875 z "
       transform="matrix(0.28222223,0,0,0.28222223,48.028178,172.73247)"
       id="ellipse3877" />
    <path
       inkscape:connector-curvature="0"
       d="m 77.470017,208.6697 c 0.3017,-0.25187 0.754256,-0.6045 1.35766,-0.55413 0.603406,0.0503 1.961069,0.15112 2.463904,0.0503 0.502838,-0.10082 0.905106,0.0503 1.055955,-0.35263 0.150843,-0.40304 0.201125,-1.71284 0.603406,-2.21662 0.40227,-0.50377 1.508509,-1.05793 1.659363,-1.56171 0.150829,-0.50379 0.201125,-0.7053 0,-1.20906 -0.201126,-0.50378 -0.653688,-0.9572 -1.307378,-1.25948 -0.653682,-0.30227 -1.257092,-0.50374 -1.257092,-0.50374 0,0 -1.307376,1.20905 -1.357662,1.51132 -0.05029,0.30229 0.100585,0.60454 -0.201124,0.75566 -0.301705,0.15111 -0.804539,-0.30227 -0.905105,-1.10829 -0.100585,-0.80606 0.25142,-1.76323 0.201125,-2.31739 -0.05029,-0.55416 -0.402269,-1.05795 -0.100585,-1.6121 0.3017,-0.55415 1.005672,-1.41056 1.558794,-1.81359 0.553123,-0.40303 1.508514,-0.45343 1.659361,-0.95718 0.150859,-0.50379 -0.95539,-2.41817 -0.95539,-2.87157 0,-0.45338 0.150874,-1.3098 -0.201143,-2.01509 -0.351984,-0.70531 -0.754254,-2.21664 -2.262768,-3.17384 -1.508508,-0.95717 -2.56447,-1.36015 -2.815888,-2.06546 -0.25142,-0.7053 -0.05029,-0.7053 0.251418,-0.90682 0.301704,-0.20148 -0.80454,-1.36019 -1.156523,-2.46849 -0.351986,-1.10831 -0.95539,-3.32494 -0.70397,-3.52645 0.251417,-0.20149 1.005673,0 1.156522,0.40302 0.150875,0.40302 0.754255,2.87153 0.754255,2.87153 0,0 -0.150828,-1.86399 0.100585,-2.41814 0.251421,-0.55415 0.553123,-1.10829 0.854823,-0.95718 0.301701,0.15112 0.150828,3.42572 0.150828,3.42572 0,0 0.301707,-0.7557 0.502842,-1.2091 0.201126,-0.45338 0.351983,-0.85641 0.603405,-0.60454 0.251415,0.25192 0.05029,2.67003 0.05029,2.67003 0,0 0.402275,-0.60452 0.703974,-0.75563 0.301703,-0.15112 0.452551,-0.25192 0.653688,0.10082 0.201145,0.35265 0.150844,0.80607 0.150844,0.80607 0,0 0.150828,-0.5038 0.502836,-0.5038 0.351986,0 0.804537,0.15111 0.653688,0.55417 -0.150859,0.403 1.35766,0.0503 1.257093,0.75565 -0.100585,0.70532 0,1.3602 0.402271,1.3602 0.402267,0 0.653689,0.55416 1.458227,0.35264 0.502834,0.30227 -0.251419,2.16627 0.100585,1.91436 0.351987,-0.25188 1.156528,-0.45339 1.458231,0.10082 0.301701,0.55414 -0.402272,1.20905 0,1.71285 0.402268,0.50375 0,0.95718 0.6034,1.3602 0.603406,0.403 0.653693,0.10082 0.804541,1.00754 0.150874,0.90681 0.150874,1.30984 0.40227,1.66247 0.251421,0.35265 0.553124,0.60455 0.502842,1.36021 -0.05029,0.75569 -0.502842,1.46097 0.100585,1.36021 0.603403,-0.10082 0.854819,-0.7053 1.307376,-0.95717 0.452556,-0.2519 0.553124,-0.30227 1.156528,-0.75567 0.603403,-0.45343 0.70397,-1.05794 1.055958,-1.2091 0.351982,-0.15111 0.653683,-0.10082 1.156524,-0.30224 0.502832,-0.20149 1.005674,-0.65493 1.257098,-0.85643 0.251416,-0.2015 0.251416,-0.30228 0.70397,-0.70531 0.452551,-0.403 0.905101,-0.6549 1.206806,-1.30981 0.301696,-0.6549 0.251423,-0.7053 0.603407,-1.66248 0.351986,-0.95717 0.251416,-1.25944 0.452551,-1.66245 0.201146,-0.40303 0.201146,-0.75566 0.553128,-1.10832 0.351979,-0.35264 0.653683,-0.75566 0.703965,-0.40302 0.05031,0.35265 0.05031,0.85641 0.05031,1.15869 0,0.30226 0.452555,-0.45341 0.854829,-1.20908 0.40227,-0.75565 0.20112,-0.85641 0.35199,-1.51132 0.15087,-0.65493 0,-1.10833 0.0503,-1.86398 0.0503,-0.75567 0.15084,-0.80605 0.20112,-1.91434 0.0503,-1.10833 0.13966,-1.29444 0.13966,-2.10049 0,-0.80605 -0.0292,-1.13208 -0.0391,-1.72823 0.17456,-0.4576 0.37018,-0.59752 0.50282,-0.55417 0.16339,0.0435 0.38273,0.046 0.51403,0.6549 0.10059,0.65492 0.19128,1.14331 0.29051,2.36778 -0.10058,1.20906 -0.15083,2.26699 0.0503,2.56926 0.20112,0.30227 0.35198,0.25189 0.50283,-0.10082 0.15088,-0.35263 0.15088,-0.50375 0.35199,-1.10829 0.20112,-0.60455 0.18844,-1.00068 0.29185,-1.84441 -0.0503,-1.25944 0.01,-1.83316 0.0602,-2.79035 0.0503,-0.95719 -0.005,-0.98514 0.10059,-1.56171 0.0907,-0.54578 0.21784,-0.67585 0.65369,-0.60454 0.25142,0.30227 0.3017,1.05793 0.40227,1.71283 0.10058,0.65494 0.10058,0.60455 0.15087,1.81362 0.0503,1.20907 0.007,1.69176 -0.0936,2.09478 -0.0237,0.4492 -0.11311,0.89559 -0.0573,1.07901 0.3017,-0.2015 0.3017,-0.55414 0.6034,-1.25944 0.30171,-0.70528 0.55312,-1.30982 0.65369,-2.11586 0.10059,-0.80604 0.36885,-1.10128 0.54059,-1.98849 0.40227,-0.85643 0.4903,-1.06348 0.76678,-1.08456 0.29185,0.20987 0.43017,0.39884 0.40227,1.05794 -0.15084,0.70528 -0.15084,1.05794 -0.40227,1.76321 -0.25141,0.70531 -0.20113,1.00757 -0.55312,1.76324 -0.21366,0.66328 -0.24007,0.88855 -0.35198,1.10832 0.50283,0.0503 0.49582,-0.14975 0.80453,-0.5038 0.50852,-0.96987 0.31573,-0.76554 0.50284,-1.05792 0.27933,-0.58497 0.51821,-0.80037 0.75427,-0.7053 0.25141,0.40303 0.35198,0.5038 0.15082,0.95718 -0.20112,0.45341 -0.0503,0.15112 -0.35198,0.80604 -0.3017,0.65492 -0.6034,0.90681 -0.20114,0.85643 0.40228,-0.0503 0.45255,0 0.70397,-0.40304 0.25142,-0.403 0,-0.45339 0.55312,-0.70529 0.55313,-0.25187 0.90512,-0.70528 1.05596,-0.35262 0.15088,0.35262 0.20113,0.30225 -0.15082,0.80604 -0.35199,0.50378 -0.70398,0.65491 -0.55313,0.9068 0.15084,0.25189 0.55313,0.30225 0.85483,0.30225 0.3017,0 0.35198,0.0503 0.20111,0.55418 -0.15083,0.50375 -0.20111,0.50375 -0.25141,0.75566 -0.0503,0.25187 0.20112,0.45339 0.20112,0.45339 0,0 0.45255,-0.30226 0.10056,0.45341 -0.35198,0.75567 -0.55311,0.55415 -0.75425,0.9068 -0.20113,0.35265 -0.40226,0.70529 -0.10056,0.70529 0.30171,0 0.60341,-0.0503 0.55313,0.2015 -0.0503,0.25188 -0.50284,0.5038 -0.25142,0.65492 0.25142,0.15111 0.45255,-0.0503 0.65368,0.15111 0.20115,0.2015 0,0.55415 0,0.80604 0,0.2519 -0.0503,0.45342 0.0503,0.70529 0.10056,0.2519 0.30172,0.50377 0.15088,0.75567 -0.15088,0.25188 0.0503,0.30228 -0.35199,0.55415 -0.40228,0.2519 -0.65369,0.2015 -0.65369,0.4534 0,0.25191 -0.0503,0.2015 0.20113,0.40303 0.25143,0.2015 0.55313,0.0503 0.35199,0.50378 -0.20113,0.45339 -0.15084,0.40303 -0.25143,0.80606 -0.10056,0.403 0.0503,0.20147 -0.40226,1.15867 -0.45256,0.95718 -0.90511,1.66247 -1.35767,1.91436 -0.45255,0.2519 -0.35198,0.80606 -0.0503,0.90683 0.30172,0.10069 0.352,0.55414 0.0503,1.20904 -0.3017,0.65491 -0.65368,1.51135 -0.75425,1.96476 -0.10056,0.45339 -0.20113,0.50378 -0.70397,1.05793 -0.50284,0.55416 -0.9051,1.05791 -1.35765,1.20906 -0.45256,0.15113 -0.50284,0.65491 -0.80455,0.90679 -0.3017,0.2519 -0.40227,0.40303 -1.05596,0.40303 -0.65369,0 -0.65369,-0.15111 -1.30736,0.0503 -0.65369,0.2015 -0.9554,0.40303 -1.00568,0.70531 -0.0503,0.30226 -0.25142,0.45337 -0.65369,0.35263 -0.40227,-0.10082 -0.10058,0.2015 -0.6034,0.40303 -0.502844,0.2015 -0.351994,0.4534 -0.955392,0.40303 -0.60341,-0.0503 -0.905115,-0.5038 -1.05596,0 -0.150844,0.50377 -0.201125,0.90679 -0.854824,0.45338 -0.653691,-0.45338 -1.005677,-1.66245 -1.357655,-0.40301 -0.351997,1.25945 -0.351997,1.56172 0.05031,1.91435 0.402268,0.35263 0.502837,0.65491 1.407945,1.00758 0.905097,0.35263 0.905097,0.75566 1.55879,1.00754 0.653687,0.2519 0.703967,0.35264 1.709646,0.85642 1.00567,0.50378 1.25708,0.65492 1.86049,1.00755 0.60341,0.35266 0.75426,0.7053 0.90511,1.05793 0.15088,0.35268 0.80455,0.75567 0.55312,1.25946 -0.25142,0.50377 -0.75425,0.2015 -0.75425,0.45338 0,0.25191 0.10058,0.45342 -0.10059,0.95719 -0.20112,0.50379 -0.15087,0.7053 -0.85481,0.9068 -0.70398,0.20149 -1.10624,0.30227 -1.45823,0.15112 -0.35199,-0.15112 -0.45256,0.45338 -0.804529,0.30225 -0.352,-0.15111 -0.50285,-0.60454 -0.754264,-0.35264 -0.251417,0.2519 0.201123,0.40301 -0.402276,0.55417 -0.603401,0.15111 -0.653683,-0.25191 -0.703966,0.10082 -0.05031,0.35266 0.150828,0.70529 -0.502838,0.35266 -0.65369,-0.35266 -0.452548,-1.05794 -0.955389,-0.55418 -0.502837,0.50378 -0.251421,1.10832 -1.156527,0.60454 -0.905113,-0.50379 -0.603412,-0.55416 -1.30738,-0.50379 -0.703971,0.0503 -0.703971,0.10083 -0.955391,-0.4534 -0.251416,-0.55414 0.25142,-0.40301 -0.854819,-0.45338 -1.106247,-0.0503 -0.553121,0.6549 -1.257097,-0.30227 -0.703971,-0.95719 -0.854824,-1.91434 -1.156526,-0.85642 -0.301702,1.05793 0,1.3098 -0.452554,1.61207 -0.452551,0.30229 -2.765604,0.2015 -2.765604,0.2015 0,0 -0.05029,1.1587 -0.251421,1.36021 -0.201126,0.20146 -0.70397,-0.2015 -1.156524,0.20146 -0.452551,0.40305 -0.150844,0.65494 -0.55312,1.00759 -0.402267,0.35264 -1.206811,0.40301 -1.206811,0.40301 0,0 0.553123,-0.4534 0.703976,-0.85643 0.150828,-0.40301 0.351985,-1.10831 0.351985,-1.10831 0,0 -0.80454,0.30227 -1.156527,0.35264 -0.351985,0.0503 -0.905106,-0.0503 -0.905106,-0.0503 l 0.15083,1.15869 c 0,0 -0.955388,0 -0.955388,-0.403 0,-0.40303 0.301703,-1.51132 0.553124,-1.66247 0.251416,-0.15112 0.603403,-0.10082 0.603403,-0.10082 0,0 -0.100585,-0.50377 0.150828,-0.60453 0.25142,-0.10082 0.402268,0 0.804537,0 0.402273,0 2.212484,-0.55417 2.212484,-0.55417 0,0 -0.05029,-1.30981 0.150874,-1.86396 0.201145,-0.55417 1.156526,-2.1159 0.703973,-2.36776 -0.452558,-0.25188 -0.804538,-0.0503 -1.055959,0.2015 -0.251419,0.25188 -0.703974,1.00755 -1.659362,1.20906 -0.955392,0.2015 -1.709648,0.30227 -1.709648,0.30227 0,0 -0.201126,0.10082 -0.201126,0.50378 0,0.40304 0.351985,0.80607 -0.150875,1.30983 -0.502834,0.50377 -0.905103,0.95718 -1.458226,0.70528 -0.553123,-0.25189 -0.65369,-0.55414 -0.65369,-0.55414 0,0 0.402271,0.25187 1.055959,0.10082 0.65369,-0.15112 0.402269,-1.41058 0.351987,-1.66246 -0.05029,-0.25188 -0.553121,-0.50377 -0.854824,-0.25188 -0.301701,0.25188 -0.703972,0.90679 -0.452555,1.15869 0.251422,0.25187 -0.703969,-0.55417 -0.653685,-0.90681 0.05029,-0.35265 0.201148,-0.60454 0.201148,-0.60454 0,0 -0.653693,0 -1.05596,-0.0503 -0.402275,-0.0503 -0.703977,-0.2519 -0.703977,0.0503 0,0.30228 0.201146,1.66249 -0.251415,0.80604 -0.45255,-0.85639 -0.653684,-1.05792 -0.201124,-1.51134 z"
       id="path3881"
       sodipodi:nodetypes="cccccccccccccccccccccccccccccccccccccccccccccccccccccccccccccccccccccccccccccccccccccccccccccccccccccccccccccccccccccccccccccccccccccccccccccccccccccccccccccccccccccccccccccccccccccccccccccccc"
       style="fill:#7fad9a;fill-opacity:1;fill-rule:evenodd;stroke:none" />
  </g>
</svg>
