<?xml version="1.0" encoding="UTF-8" standalone="no"?>
<!-- Created with Inkscape (http://www.inkscape.org/) -->

<svg
   xmlns:dc="http://purl.org/dc/elements/1.1/"
   xmlns:cc="http://creativecommons.org/ns#"
   xmlns:rdf="http://www.w3.org/1999/02/22-rdf-syntax-ns#"
   xmlns:svg="http://www.w3.org/2000/svg"
   xmlns="http://www.w3.org/2000/svg"
   xmlns:sodipodi="http://sodipodi.sourceforge.net/DTD/sodipodi-0.dtd"
   xmlns:inkscape="http://www.inkscape.org/namespaces/inkscape"
   width="604.06256"
   height="779.52753"
   id="svg3133"
   version="1.1"
   inkscape:version="0.48.4 r9939"
   sodipodi:docname="New document 2">
  <defs
     id="defs3135" />
  <sodipodi:namedview
     id="base"
     pagecolor="#ffffff"
     bordercolor="#666666"
     borderopacity="1.0"
     inkscape:pageopacity="0.0"
     inkscape:pageshadow="2"
     inkscape:zoom="0.79401709"
     inkscape:cx="-41.443776"
     inkscape:cy="341.75041"
     inkscape:document-units="px"
     inkscape:current-layer="layer1"
     showgrid="false"
     fit-margin-top="0"
     fit-margin-left="0"
     fit-margin-right="0"
     fit-margin-bottom="0"
     inkscape:window-width="1920"
     inkscape:window-height="1056"
     inkscape:window-x="0"
     inkscape:window-y="51"
     inkscape:window-maximized="1" />
  <metadata
     id="metadata3138">
    <rdf:RDF>
      <cc:Work
         rdf:about="">
        <dc:format>image/svg+xml</dc:format>
        <dc:type
           rdf:resource="http://purl.org/dc/dcmitype/StillImage" />
        <dc:title></dc:title>
      </cc:Work>
    </rdf:RDF>
  </metadata>
  <g
     inkscape:label="Layer 1"
     inkscape:groupmode="layer"
     id="layer1"
     transform="translate(-118.84222,-94.600564)">
    <rect
       id="rect4313"
       style="fill:#000000;fill-opacity:1;stroke:none"
       width="286.86533"
       height="286.86533"
       x="118.84222"
       y="340.93167" />
    <path
       sodipodi:type="arc"
       style="fill:#000000;fill-opacity:1;stroke:none"
       id="path3132"
       sodipodi:cx="180.31223"
       sodipodi:cy="282.12088"
       sodipodi:rx="66.164993"
       sodipodi:ry="66.164993"
       d="m 246.47722,282.12088 c 0,36.54192 -29.62308,66.16499 -66.16499,66.16499 -36.54192,0 -66.165,-29.62307 -66.165,-66.16499 0,-36.54192 29.62308,-66.16499 66.165,-66.16499 36.54191,0 66.16499,29.62307 66.16499,66.16499 z"
       transform="matrix(1.6065778,0,0,1.6065778,-27.410726,-252.34937)" />
    <path
       transform="matrix(1.6065778,0,0,1.6065778,-27.410726,314.57975)"
       d="m 246.47722,282.12088 c 0,36.54192 -29.62308,66.16499 -66.16499,66.16499 -36.54192,0 -66.165,-29.62307 -66.165,-66.16499 0,-36.54192 29.62308,-66.16499 66.165,-66.16499 36.54191,0 66.16499,29.62307 66.16499,66.16499 z"
       sodipodi:ry="66.164993"
       sodipodi:rx="66.164993"
       sodipodi:cy="282.12088"
       sodipodi:cx="180.31223"
       id="path3115"
       style="fill:#000000;fill-opacity:1;stroke:none"
       sodipodi:type="arc" />
    <path
       sodipodi:type="arc"
       style="fill:#000000;fill-opacity:1;stroke:none"
       id="path3127"
       sodipodi:cx="180.31223"
       sodipodi:cy="282.12088"
       sodipodi:rx="66.164993"
       sodipodi:ry="66.164993"
       d="m 246.47722,282.12088 c 0,36.54192 -29.62308,66.16499 -66.16499,66.16499 -36.54192,0 -66.165,-29.62307 -66.165,-66.16499 0,-36.54192 29.62308,-66.16499 66.165,-66.16499 36.54191,0 66.16499,29.62307 66.16499,66.16499 z"
       transform="matrix(1.6065778,0,0,1.6065778,326.91997,31.11519)" />
    <rect
       style="fill:#ffffff;fill-opacity:1;stroke:none"
       id="rect3863"
       width="216.01605"
       height="216.01082"
       x="154.26688"
       y="376.35892" />
    <path
       style="fill:none;stroke:#000000;stroke-width:0.17716534;stroke-linecap:butt;stroke-linejoin:miter;stroke-miterlimit:4;stroke-opacity:0.27314818;stroke-dasharray:none"
       d="m 154.26099,484.36432 216.0278,0"
       id="path3865"
       inkscape:connector-curvature="0" />
    <path
       inkscape:connector-curvature="0"
       id="path3867"
       d="m 262.27489,376.35042 0,216.0278"
       style="fill:none;stroke:#000000;stroke-width:0.17716534;stroke-linecap:butt;stroke-linejoin:miter;stroke-miterlimit:4;stroke-opacity:0.27314818;stroke-dasharray:none" />
  </g>
</svg>
